<?xml version="1.0" encoding="utf-8"?>
<!-- Generator: Adobe Illustrator 16.0.0, SVG Export Plug-In . SVG Version: 6.00 Build 0)  -->
<!DOCTYPE svg PUBLIC "-//W3C//DTD SVG 1.1//EN" "http://www.w3.org/Graphics/SVG/1.1/DTD/svg11.dtd">
<svg version="1.1" id="レイヤー_1" xmlns="http://www.w3.org/2000/svg" xmlns:xlink="http://www.w3.org/1999/xlink" x="0px"
	 y="0px" width="200px" height="100px" viewBox="0 0 200 100" enable-background="new 0 0 200 100" xml:space="preserve">
<g>
	<g>
		<path fill="#72B12D" d="M150.883,1.524C94.241,2.935,54.917,19.257,51.071,30.136c-2.415,6.822,1.397,12.772,11.336,16.687
			c-0.045-0.299-0.084-0.596-0.098-0.879C60.551,18.015,150.883,1.524,150.883,1.524"/>
		<g>
			<g>
				<defs>
					<path id="SVGID_1_" d="M87.499,53.975c0,6.471,5.565,11.715,12.431,11.715c6.862,0,12.426-5.244,12.426-11.715
						s-5.564-11.713-12.426-11.713C93.064,42.262,87.499,47.504,87.499,53.975"/>
				</defs>
				<clipPath id="SVGID_2_">
					<use xlink:href="#SVGID_1_"  overflow="visible"/>
				</clipPath>
				
					<radialGradient id="SVGID_3_" cx="-196.2651" cy="457.9912" r="0.2807" gradientTransform="matrix(70.1901 0 0 -66.1582 13880.375 30345.7598)" gradientUnits="userSpaceOnUse">
					<stop  offset="0" style="stop-color:#FFFFFF"/>
					<stop  offset="1" style="stop-color:#0070B8"/>
				</radialGradient>
				<rect x="87.499" y="42.262" clip-path="url(#SVGID_2_)" fill="url(#SVGID_3_)" width="24.857" height="23.428"/>
			</g>
			<path fill="#94C054" d="M92.709,51.635c-1.921-0.021-3.937-0.096-6.082-0.229c-10.228-0.645-18.31-2.254-24.22-4.584
				c1.557,10.066,18.921,25.959,38.746,27.1C92.935,65.758,92.31,56.541,92.709,51.635"/>
			<path fill="#C0D896" d="M124.23,44.258c-3.98,2.631-9.781,5.561-19.723,6.789c1.439,4.836,2.602,13.617-3.297,22.875
				c6.197,0.348,12.637-0.746,18.912-3.926C127.922,59.338,125.873,48.998,124.23,44.258"/>
		</g>
	</g>
	<g>
		<g>
			<path fill="#231815" d="M26.017,90.436v3.52c0,0.617,0.094,1.016,0.279,1.189c0.192,0.164,0.626,0.254,1.311,0.254h0.121v0.465
				h-4.705v-0.465h0.137c0.535,0,0.885-0.096,1.051-0.279c0.166-0.184,0.245-0.566,0.245-1.164v-7.379c0-0.6-0.079-0.99-0.243-1.17
				c-0.163-0.182-0.513-0.268-1.053-0.268h-0.137v-0.461h7.823l0.245,2.076h-0.582l-0.021-0.152
				c-0.091-0.641-0.287-1.027-0.579-1.166c-0.282-0.141-1.035-0.211-2.249-0.211h-1.643v4.756h1.743c0.819,0,1.346-0.07,1.578-0.199
				c0.232-0.137,0.347-0.441,0.347-0.916v-0.127h0.583v2.945h-0.583v-0.111c0-0.432-0.097-0.734-0.292-0.918
				c-0.147-0.143-0.69-0.219-1.633-0.219H26.017z"/>
			<path fill="#231815" d="M39.072,94.494c-0.513,0.535-1.038,0.932-1.578,1.199c-0.535,0.264-1.083,0.396-1.646,0.396
				c-0.848,0-1.475-0.258-1.867-0.773c-0.4-0.512-0.598-1.316-0.598-2.416v-2.121c0-0.73-0.047-1.189-0.145-1.387
				c-0.097-0.191-0.376-0.383-0.84-0.566l-0.434-0.188v-0.113l2.856-0.963v4.855c0,1.049,0.116,1.744,0.351,2.09
				c0.234,0.342,0.636,0.518,1.216,0.518c0.466,0,0.88-0.072,1.243-0.221c0.36-0.143,0.84-0.428,1.44-0.852v-3.197
				c0-0.713-0.05-1.166-0.147-1.363c-0.103-0.191-0.38-0.383-0.84-0.566l-0.435-0.188v-0.113l2.854-0.963v6.424
				c0,0.379,0.103,0.641,0.306,0.773c0.2,0.141,0.58,0.205,1.137,0.205h0.059v0.461l-2.934,0.664V94.494z"/>
			<path fill="#231815" d="M48.501,94.881v0.664c-0.631,0.363-1.295,0.545-1.995,0.545c-0.875,0-1.501-0.246-1.873-0.738
				c-0.377-0.494-0.561-1.324-0.561-2.482V88.32h-1.409l2.844-2.578v2.047h2.721v0.549h-2.721v4.305
				c0,0.957,0.134,1.646,0.403,2.076c0.271,0.43,0.701,0.65,1.293,0.65C47.517,95.369,47.954,95.207,48.501,94.881"/>
			<path fill="#231815" d="M56.271,94.494c-0.511,0.535-1.038,0.932-1.575,1.199c-0.539,0.264-1.087,0.396-1.646,0.396
				c-0.848,0-1.475-0.258-1.87-0.773C50.783,94.805,50.587,94,50.587,92.9v-2.121c0-0.73-0.053-1.189-0.146-1.387
				c-0.099-0.191-0.38-0.383-0.843-0.566l-0.435-0.188v-0.113l2.857-0.963v4.855c0,1.049,0.119,1.744,0.353,2.09
				c0.231,0.342,0.635,0.518,1.214,0.518c0.465,0,0.882-0.072,1.243-0.221c0.366-0.143,0.843-0.428,1.44-0.852v-3.197
				c0-0.713-0.051-1.166-0.147-1.363c-0.103-0.191-0.379-0.383-0.84-0.566l-0.435-0.188v-0.113l2.859-0.963v6.424
				c0,0.379,0.101,0.641,0.303,0.773c0.2,0.141,0.58,0.205,1.135,0.205h0.061v0.461l-2.936,0.664V94.494z"/>
			<path fill="#231815" d="M63.136,89.814v4.141c0,0.6,0.1,0.99,0.3,1.172c0.197,0.182,0.622,0.271,1.267,0.271h0.116v0.465H60.2
				v-0.465h0.139c0.563,0,0.929-0.09,1.103-0.275c0.172-0.186,0.258-0.57,0.258-1.168v-3.176c0-0.711-0.053-1.158-0.155-1.346
				c-0.1-0.188-0.393-0.377-0.872-0.557l-0.458-0.18v-0.115l2.92-0.967v1.574c0.531-0.549,1.019-0.957,1.461-1.227
				c0.448-0.27,0.845-0.4,1.203-0.4c0.638,0,1.167,0.309,1.589,0.92l-1.132,1.193c-0.386-0.623-0.805-0.938-1.254-0.938
				c-0.406,0-0.972,0.318-1.706,0.949C63.274,89.697,63.219,89.746,63.136,89.814"/>
			<path fill="#231815" d="M70.43,88.854c0.45-0.555,0.995-0.832,1.646-0.832c0.526,0,0.958,0.195,1.292,0.6
				c0.332,0.398,0.499,0.914,0.499,1.545c0,0.41-0.153,0.664-0.458,0.773c-0.308,0.109-1.038,0.164-2.191,0.164h-1.599
				C69.719,90.158,69.987,89.412,70.43,88.854 M72.863,95.199c-0.933,0-1.712-0.314-2.339-0.947
				c-0.629-0.629-0.945-1.414-0.945-2.348c0-0.062,0-0.172,0.01-0.346h5.867V91.33c0-1.188-0.292-2.109-0.884-2.777
				c-0.593-0.664-1.415-0.99-2.478-0.99c-1.183,0-2.165,0.4-2.949,1.211c-0.788,0.812-1.178,1.83-1.178,3.061
				s0.409,2.256,1.229,3.055c0.814,0.801,1.857,1.201,3.124,1.201c1.053,0,2.141-0.297,3.263-0.891v-0.695
				C74.656,94.965,73.748,95.199,72.863,95.199"/>
			<path fill="#231815" d="M82.324,95.746l-0.185-2.449h0.596l0.024,0.115c0.152,0.742,0.469,1.318,0.956,1.727
				c0.482,0.406,1.095,0.607,1.84,0.607c0.671,0,1.251-0.215,1.733-0.643c0.477-0.432,0.722-0.949,0.722-1.553
				c0-0.76-0.618-1.539-1.857-2.334l-1.176-0.766c-1.146-0.736-1.894-1.312-2.244-1.725c-0.356-0.406-0.535-0.906-0.535-1.484
				c0-0.869,0.375-1.564,1.122-2.088c0.749-0.529,1.739-0.793,2.958-0.793c0.961,0,1.933,0.16,2.928,0.488l0.211,2.105H88.82
				l-0.039-0.115c-0.408-1.346-1.346-2.021-2.809-2.021c-0.656,0-1.199,0.188-1.628,0.555c-0.432,0.369-0.648,0.836-0.648,1.402
				c0,0.715,0.532,1.414,1.588,2.102l1.701,1.088c1.056,0.689,1.756,1.234,2.088,1.639c0.329,0.404,0.495,0.912,0.495,1.523
				c0,0.939-0.382,1.684-1.143,2.242c-0.763,0.561-1.784,0.834-3.07,0.834C84.286,96.203,83.275,96.051,82.324,95.746"/>
			<path fill="#231815" d="M94.946,88.971c0.4-0.154,0.79-0.232,1.164-0.232c0.827,0,1.5,0.314,2.025,0.941
				c0.524,0.627,0.785,1.439,0.785,2.439c0,1.008-0.261,1.83-0.777,2.48c-0.519,0.648-1.179,0.973-1.978,0.973
				c-0.435,0-0.874-0.105-1.322-0.318c-0.451-0.211-0.824-0.49-1.122-0.84v-4.738C94.141,89.365,94.548,89.129,94.946,88.971
				 M94.732,96.016c0.337,0.049,0.669,0.074,0.996,0.074c1.406,0,2.554-0.422,3.431-1.256s1.316-1.926,1.316-3.268
				c0-1.162-0.328-2.121-0.998-2.875c-0.661-0.754-1.508-1.129-2.536-1.129c-0.502,0-1.024,0.121-1.564,0.371
				c-0.535,0.252-1.085,0.631-1.656,1.129v-1.5l-2.862,0.963v0.113l0.458,0.188c0.443,0.168,0.711,0.357,0.811,0.561
				c0.103,0.203,0.155,0.65,0.155,1.34V97.1c0,0.592-0.086,0.98-0.265,1.162c-0.174,0.186-0.538,0.277-1.104,0.277h-0.068V99h4.308
				v-0.461h-0.097c-0.547,0-0.906-0.092-1.083-0.277c-0.168-0.182-0.252-0.57-0.252-1.162v-1.311
				C94.062,95.885,94.398,95.965,94.732,96.016"/>
			<path fill="#231815" d="M104.699,87.615v6.34c0,0.598,0.08,0.98,0.25,1.164s0.521,0.279,1.059,0.279h0.121v0.465h-4.311v-0.465
				h0.161c0.524,0,0.864-0.09,1.032-0.275c0.164-0.186,0.248-0.57,0.248-1.168v-3.166c0-0.725-0.049-1.17-0.131-1.338
				c-0.092-0.166-0.389-0.359-0.892-0.574l-0.4-0.18v-0.115L104.699,87.615z M103.75,86.576c-0.291,0-0.527-0.09-0.721-0.271
				s-0.289-0.402-0.289-0.676c0-0.266,0.096-0.488,0.289-0.674s0.43-0.277,0.721-0.277c0.283,0,0.521,0.092,0.719,0.277
				c0.191,0.186,0.285,0.408,0.285,0.674c0,0.273-0.094,0.494-0.285,0.676C104.271,86.486,104.033,86.576,103.75,86.576"/>
			<path fill="#231815" d="M110.092,89.814v4.141c0,0.6,0.102,0.99,0.299,1.172s0.621,0.271,1.27,0.271h0.115v0.465h-4.615v-0.465
				h0.137c0.562,0,0.926-0.09,1.1-0.275s0.262-0.57,0.262-1.168v-3.176c0-0.711-0.053-1.158-0.156-1.346
				c-0.1-0.188-0.391-0.377-0.871-0.557l-0.455-0.18v-0.115l2.916-0.967v1.574c0.533-0.549,1.021-0.957,1.465-1.227
				c0.445-0.27,0.846-0.4,1.195-0.4c0.641,0,1.17,0.309,1.594,0.92l-1.133,1.193c-0.381-0.623-0.799-0.938-1.254-0.938
				c-0.402,0-0.973,0.318-1.705,0.949C110.236,89.697,110.18,89.746,110.092,89.814"/>
			<path fill="#231815" d="M117.736,87.615v6.34c0,0.598,0.086,0.98,0.256,1.164c0.168,0.184,0.52,0.279,1.062,0.279h0.123v0.465
				h-4.314v-0.465h0.154c0.527,0,0.873-0.09,1.037-0.275c0.162-0.186,0.248-0.57,0.248-1.168v-3.166c0-0.725-0.049-1.17-0.135-1.338
				c-0.088-0.166-0.387-0.359-0.893-0.574l-0.396-0.18v-0.115L117.736,87.615z M116.789,86.576c-0.285,0-0.521-0.09-0.719-0.271
				c-0.193-0.182-0.289-0.402-0.289-0.676c0-0.266,0.096-0.488,0.289-0.674c0.197-0.186,0.434-0.277,0.719-0.277
				c0.283,0,0.523,0.092,0.717,0.277s0.293,0.408,0.293,0.674c0,0.273-0.1,0.494-0.293,0.676S117.072,86.576,116.789,86.576"/>
			<path fill="#231815" d="M125.703,94.881v0.664c-0.635,0.363-1.305,0.545-2,0.545c-0.873,0-1.496-0.246-1.871-0.738
				c-0.379-0.494-0.564-1.324-0.564-2.482V88.32h-1.404l2.842-2.578v2.047h2.721v0.549h-2.721v4.305
				c0,0.957,0.135,1.646,0.402,2.076c0.27,0.43,0.705,0.65,1.289,0.65C124.715,95.369,125.15,95.207,125.703,94.881"/>
			<path fill="#231815" d="M127.031,95.545l-0.184-2.078h0.611l0.027,0.145c0.215,1.346,0.93,2.016,2.15,2.016
				c0.523,0,0.98-0.154,1.355-0.459c0.373-0.312,0.562-0.689,0.562-1.121c0-0.268-0.092-0.508-0.287-0.709
				c-0.195-0.203-0.664-0.496-1.404-0.879l-0.727-0.373c-1.387-0.715-2.076-1.518-2.076-2.4c0-0.652,0.256-1.176,0.764-1.555
				c0.51-0.381,1.203-0.568,2.072-0.568c0.732,0,1.545,0.146,2.424,0.459v1.668h-0.611l-0.023-0.135
				c-0.037-0.232-0.088-0.426-0.145-0.594c-0.062-0.164-0.148-0.309-0.26-0.434c-0.119-0.129-0.279-0.242-0.488-0.35
				c-0.211-0.107-0.52-0.156-0.926-0.156c-0.426,0-0.777,0.115-1.049,0.348c-0.275,0.232-0.406,0.531-0.406,0.898
				c0,0.531,0.531,1.08,1.613,1.641l0.801,0.422c0.789,0.41,1.332,0.789,1.631,1.139c0.297,0.348,0.443,0.781,0.443,1.287
				c0,0.703-0.297,1.27-0.898,1.693c-0.592,0.428-1.383,0.641-2.359,0.641C128.609,96.09,127.74,95.908,127.031,95.545"/>
		</g>
		<g>
			<path fill="#72B12D" d="M141.807,91.855l-0.672,1.807c-0.133,0.352-0.234,0.637-0.309,0.854
				c-0.072,0.215-0.107,0.383-0.107,0.496c0,0.111,0.027,0.193,0.084,0.25c0.057,0.061,0.146,0.104,0.266,0.137l0.906,0.27
				l0.029,0.504c-0.914-0.021-1.658-0.031-2.232-0.031c-0.6,0-1.283,0.01-2.053,0.031l-0.047-0.482l1.012-0.311
				c0.24-0.07,0.416-0.188,0.529-0.354c0.115-0.162,0.242-0.412,0.381-0.746l4.709-11.715l1.021-0.154l4.076,11.744
				c0.158,0.451,0.301,0.754,0.432,0.91c0.131,0.158,0.314,0.273,0.555,0.344l0.926,0.281l0.029,0.482
				c-0.852-0.021-1.711-0.031-2.574-0.031c-1.143,0-2.254,0.01-3.338,0.031l-0.049-0.482l0.938-0.281
				c0.125-0.039,0.217-0.086,0.273-0.146c0.057-0.057,0.086-0.143,0.086-0.26c0-0.127-0.031-0.295-0.096-0.506
				c-0.062-0.209-0.154-0.484-0.273-0.824l-0.625-1.816H141.807z M143.85,86.311c-0.113,0.336-0.236,0.684-0.369,1.045l-1.297,3.494
				h3.16l-1.164-3.484C144.061,86.998,143.949,86.646,143.85,86.311z"/>
			<path fill="#72B12D" d="M157.949,88.012c-0.398-0.098-0.826-0.145-1.287-0.145c-0.574,0-1.043,0.104-1.404,0.309
				c-0.363,0.207-0.545,0.5-0.545,0.879c0,0.289,0.08,0.514,0.236,0.672c0.158,0.156,0.43,0.303,0.814,0.438l1.512,0.541
				c0.902,0.316,1.562,0.697,1.979,1.145c0.414,0.449,0.623,0.973,0.623,1.568c0,0.947-0.389,1.684-1.168,2.209
				c-0.779,0.523-1.803,0.785-3.068,0.785c-1.059,0-2.1-0.221-3.123-0.666c0.215-0.863,0.393-1.701,0.529-2.51l0.484-0.08
				l0.68,2.105c0.385,0.137,0.867,0.205,1.447,0.205c0.549,0,0.992-0.107,1.334-0.32c0.34-0.213,0.512-0.508,0.512-0.889
				c0-0.314-0.104-0.578-0.309-0.795s-0.613-0.43-1.225-0.641l-1.154-0.408c-0.738-0.262-1.293-0.605-1.664-1.029
				c-0.373-0.42-0.559-0.934-0.559-1.547c0-0.939,0.363-1.662,1.088-2.164s1.725-0.754,3-0.754c1.045,0,1.99,0.156,2.836,0.473
				c-0.189,0.844-0.35,1.643-0.48,2.396l-0.521,0.076L157.949,88.012z"/>
			<path fill="#72B12D" d="M161.631,87.625c1.553-0.238,2.916-0.486,4.088-0.744l0.104,0.078c-0.039,0.889-0.055,1.836-0.055,2.84
				v3.641c0,0.766,0.004,1.301,0.016,1.602c0.014,0.174,0.092,0.285,0.238,0.328l1.182,0.338l0.029,0.465
				c-0.934-0.021-1.861-0.031-2.781-0.031c-0.939,0-1.867,0.01-2.781,0.031l-0.047-0.465l1.201-0.338
				c0.145-0.037,0.223-0.135,0.236-0.289c0.012-0.25,0.02-0.674,0.02-1.266v-3.109c0-0.842-0.014-1.619-0.039-2.328l-1.352-0.355
				L161.631,87.625z M165.795,83.686c0,0.443-0.141,0.805-0.422,1.08c-0.281,0.277-0.648,0.416-1.102,0.416
				c-0.416,0-0.76-0.131-1.027-0.393c-0.268-0.258-0.402-0.598-0.402-1.018c0-0.455,0.143-0.818,0.426-1.08
				c0.285-0.264,0.654-0.396,1.107-0.396c0.418,0,0.758,0.119,1.023,0.363C165.662,82.898,165.795,83.24,165.795,83.686z"/>
			<path fill="#72B12D" d="M169.574,87.855c1.342-0.623,2.635-0.936,3.877-0.936c1.135,0,1.984,0.26,2.549,0.777
				c0.564,0.52,0.844,1.264,0.838,2.236l-0.049,4.018c-0.012,0.328-0.004,0.59,0.02,0.789c0.027,0.201,0.084,0.354,0.176,0.461
				c0.092,0.105,0.227,0.182,0.406,0.227s0.441,0.072,0.781,0.078l0.057,0.443c-0.883,0.311-1.643,0.463-2.281,0.463
				c-0.857,0-1.42-0.342-1.693-1.033c-0.801,0.691-1.648,1.033-2.543,1.033c-0.877,0-1.598-0.223-2.166-0.672
				c-0.568-0.447-0.852-1.074-0.852-1.889c0-1.008,0.457-1.75,1.375-2.219c0.918-0.473,2.295-0.705,4.129-0.705l0.012-0.723
				c0.006-0.689-0.156-1.195-0.486-1.521c-0.332-0.326-0.85-0.488-1.549-0.488c-0.648,0-1.428,0.145-2.334,0.434L169.574,87.855z
				 M174.197,91.846c-0.988,0-1.695,0.129-2.119,0.385c-0.422,0.26-0.633,0.701-0.633,1.324c0,0.566,0.15,0.971,0.449,1.211
				c0.301,0.244,0.656,0.361,1.064,0.361c0.467,0,0.875-0.121,1.221-0.365L174.197,91.846z"/>
		</g>
	</g>
</g>
</svg>
