<?xml version="1.0" encoding="utf-8"?>
<!-- Generator: Adobe Illustrator 16.0.0, SVG Export Plug-In . SVG Version: 6.00 Build 0)  -->
<!DOCTYPE svg PUBLIC "-//W3C//DTD SVG 1.1//EN" "http://www.w3.org/Graphics/SVG/1.1/DTD/svg11.dtd">
<svg version="1.1" id="レイヤー_1" xmlns="http://www.w3.org/2000/svg" xmlns:xlink="http://www.w3.org/1999/xlink" x="0px"
	 y="0px" width="560px" height="502px" viewBox="0 8 560 502" enable-background="new 0 8 560 502" xml:space="preserve">
<path fill="#4B8F00" d="M493.93,157H328.628c-16.996,0-23.271,7.508-23.271,7.508l-44.675,41.763H64.45
	c-8.531,0-15.45,6.886-15.45,15.127V427.44c0,8.244,6.919,14.56,15.45,14.56h429.1c8.536,0,15.45-6.315,15.45-14.559V234.906
	v-13.506v-52.164C508.006,160.28,493.93,157,493.93,157z"/>
<g>
	<path fill="#FFFFFF" d="M182.928,253.731c0.613,0,1.129,0.216,1.547,0.644c0.417,0.43,0.627,0.94,0.627,1.529v1.031
		c0,0.589-0.209,1.099-0.627,1.529c-0.418,0.429-0.933,0.645-1.547,0.645H152.61c-0.59,0-1.099-0.215-1.529-0.645
		c-0.43-0.43-0.643-0.94-0.643-1.529v-1.031c0-0.589,0.213-1.099,0.643-1.529c0.43-0.428,0.939-0.644,1.529-0.644h5.304
		c0.197,0,0.295-0.086,0.295-0.258v-5.747c0-0.196-0.098-0.294-0.295-0.294h-4.125c-0.614,0-1.13-0.208-1.547-0.626
		c-0.418-0.417-0.627-0.933-0.627-1.547v-0.921c0-0.614,0.208-1.129,0.627-1.547c0.417-0.418,0.933-0.626,1.547-0.626h4.125
		c0.197,0,0.295-0.098,0.295-0.295v-4.162c0-0.613,0.215-1.129,0.645-1.547c0.428-0.417,0.938-0.626,1.528-0.626h1.401
		c0.592,0,1.098,0.209,1.527,0.626c0.43,0.418,0.645,0.933,0.645,1.547v4.162c0,0.198,0.086,0.295,0.258,0.295h6.962
		c0.171,0,0.258-0.098,0.258-0.295v-4.162c0-0.613,0.215-1.129,0.644-1.547c0.429-0.417,0.939-0.626,1.528-0.626h1.437
		c0.59,0,1.099,0.209,1.528,0.626c0.43,0.418,0.645,0.933,0.645,1.547v4.162c0,0.198,0.097,0.295,0.294,0.295h4.347
		c0.614,0,1.129,0.208,1.547,0.626c0.417,0.418,0.626,0.933,0.626,1.547v0.921c0,0.614-0.209,1.13-0.626,1.547
		c-0.418,0.418-0.933,0.626-1.547,0.626h-4.347c-0.197,0-0.294,0.098-0.294,0.294v5.747c0,0.172,0.097,0.258,0.294,0.258H182.928z
		 M158.283,261.726c0.466-0.466,1.019-0.774,1.658-0.921c0.246-0.074,0.494-0.111,0.737-0.111c0.369,0,0.737,0.074,1.105,0.221
		l1.805,0.664c0.491,0.197,0.787,0.553,0.885,1.068c0.023,0.123,0.037,0.234,0.037,0.332c0,0.367-0.135,0.699-0.406,0.994
		c-2.259,2.26-4.667,4.262-7.22,6.004c-0.466,0.297-0.958,0.443-1.474,0.443c-0.099,0-0.198-0.014-0.295-0.037
		c-0.612-0.051-1.166-0.295-1.658-0.736c-0.418-0.346-0.835-0.688-1.252-1.033c-0.345-0.293-0.516-0.662-0.516-1.104
		c0-0.566,0.233-0.996,0.7-1.291C154.65,264.845,156.613,263.346,158.283,261.726z M164.214,247.433
		c-0.172,0-0.257,0.098-0.257,0.294v5.747c0,0.172,0.085,0.258,0.257,0.258h6.962c0.171,0,0.258-0.086,0.258-0.258v-5.747
		c0-0.196-0.087-0.294-0.258-0.294H164.214z M171.655,264.01c-0.345-0.295-0.516-0.664-0.516-1.105c0-0.59,0.245-1.02,0.737-1.289
		l1.252-0.664c0.492-0.27,1.019-0.405,1.585-0.405c0.097,0,0.184,0,0.257,0c0.664,0.05,1.265,0.271,1.805,0.664
		c1.327,1.007,2.561,1.952,3.703,2.837c1.143,0.884,2.168,1.719,3.076,2.506c0.344,0.293,0.516,0.662,0.516,1.105
		c0,0.072,0,0.146,0,0.219c-0.074,0.541-0.344,0.934-0.811,1.18l-1.731,0.994c-0.443,0.246-0.897,0.369-1.361,0.369
		c-0.126,0-0.26-0.012-0.408-0.035c-0.64-0.1-1.191-0.369-1.658-0.812C176.603,268.148,174.457,266.293,171.655,264.01z"/>
	<path fill="#FFFFFF" d="M222.454,242.643c0,0.59-0.214,1.099-0.644,1.528c-0.43,0.43-0.939,0.645-1.528,0.645H202.6
		c-0.198,0-0.333,0.074-0.405,0.221c-0.222,0.443-0.516,1.007-0.885,1.695c-0.024,0.05-0.024,0.104,0,0.165
		c0.023,0.062,0.074,0.092,0.147,0.092h14.699c0.612,0,1.127,0.208,1.546,0.625c0.418,0.418,0.626,0.934,0.626,1.548v16.319
		c0,1.326-0.154,2.361-0.459,3.111c-0.309,0.75-0.866,1.32-1.675,1.713c-1.033,0.518-2.581,0.811-4.643,0.885
		c-0.05,0-0.087,0-0.111,0c-0.565,0-1.081-0.197-1.545-0.59c-0.494-0.393-0.825-0.896-0.997-1.51
		c-0.099-0.393-0.208-0.773-0.331-1.143c-0.074-0.172-0.111-0.346-0.111-0.516c0-0.295,0.098-0.566,0.294-0.811
		c0.271-0.418,0.639-0.627,1.108-0.627h0.037c0.685,0.025,1.434,0.037,2.246,0.037c0.565,0,0.847-0.221,0.847-0.662v-1.106
		c0-0.171-0.097-0.257-0.294-0.257h-11.936c-0.171,0-0.258,0.086-0.258,0.257v4.642c0,0.613-0.215,1.129-0.644,1.549
		c-0.429,0.416-0.94,0.625-1.527,0.625h-1.107c-0.59,0-1.1-0.209-1.529-0.625c-0.43-0.42-0.644-0.934-0.644-1.549v-13.078
		c0-0.049-0.018-0.086-0.053-0.11c-0.037-0.024-0.083-0.013-0.132,0.037c-0.736,0.762-1.498,1.461-2.284,2.1
		c-0.393,0.32-0.811,0.479-1.253,0.479c-0.123,0-0.234-0.012-0.331-0.037c-0.59-0.097-1.081-0.38-1.475-0.847
		c-0.271-0.319-0.553-0.639-0.847-0.958c-0.319-0.369-0.479-0.787-0.479-1.253c0-0.074,0-0.135,0-0.185
		c0.049-0.565,0.294-1.018,0.737-1.362c2.676-2.161,5.009-5.046,6.998-8.658c0.049-0.049,0.056-0.098,0.019-0.147
		c-0.037-0.049-0.08-0.074-0.128-0.074h-5.194c-0.59,0-1.1-0.214-1.527-0.645c-0.43-0.429-0.646-0.938-0.646-1.528v-0.811
		c0-0.589,0.215-1.098,0.646-1.528c0.428-0.43,0.938-0.645,1.527-0.645h7.518c0.195,0,0.317-0.085,0.367-0.258
		c0.245-0.663,0.466-1.351,0.662-2.062c0.197-0.59,0.553-1.032,1.069-1.327c0.369-0.221,0.75-0.331,1.142-0.331
		c0.172,0,0.345,0.013,0.516,0.037l1.437,0.332c0.592,0.147,1.02,0.466,1.29,0.958c0.197,0.32,0.294,0.64,0.294,0.959
		c0,0.196-0.049,0.405-0.146,0.625c-0.074,0.271-0.161,0.54-0.258,0.811c-0.024,0.074-0.019,0.136,0.019,0.185
		c0.037,0.049,0.091,0.073,0.165,0.073h15.583c0.589,0,1.098,0.215,1.528,0.645s0.644,0.938,0.644,1.528L222.454,242.643
		L222.454,242.643z M212.693,253.327c0.197,0,0.294-0.098,0.294-0.295V252c0-0.171-0.097-0.257-0.294-0.257h-11.936
		c-0.171,0-0.257,0.086-0.257,0.257v1.032c0,0.198,0.086,0.295,0.257,0.295H212.693z M200.5,259.184
		c0,0.197,0.086,0.295,0.257,0.295h11.936c0.197,0,0.294-0.098,0.294-0.295v-1.068c0-0.171-0.097-0.258-0.294-0.258h-11.936
		c-0.171,0-0.257,0.087-0.257,0.258V259.184z"/>
	<path fill="#FFFFFF" d="M251.78,239.807c0.194,0,0.379,0,0.55,0c1.351,0,2.48,0.295,3.389,0.885l0.884,0.552
		c0.516,0.345,0.872,0.811,1.071,1.4c0.121,0.319,0.184,0.639,0.184,0.958c0,0.294-0.052,0.589-0.146,0.884
		c-0.027,0.124-0.076,0.309-0.147,0.553c-0.073,0.246-0.113,0.381-0.113,0.406c-0.418,1.621-0.811,3.033-1.179,4.236
		s-0.965,2.738-1.784,4.604c-0.826,1.866-1.74,3.475-2.745,4.826c-1.55,2.063-3.453,3.948-5.711,5.655
		c-2.26,1.705-4.79,3.1-7.59,4.18c-0.369,0.148-0.737,0.223-1.105,0.223c-0.245,0-0.502-0.037-0.773-0.111
		c-0.637-0.146-1.179-0.465-1.621-0.957l-2.063-2.248c-0.221-0.27-0.332-0.553-0.332-0.848c0-0.123,0.024-0.258,0.074-0.404
		c0.147-0.467,0.455-0.774,0.922-0.922c5.305-1.521,9.541-4.248,12.709-8.178c2.087-2.554,3.45-5.698,4.088-9.431
		c0.049-0.195-0.025-0.294-0.222-0.294h-16.316c-0.812,0-1.72,0.024-2.728,0.074c-0.049,0-0.086,0-0.111,0
		c-0.54,0-1.02-0.185-1.437-0.553c-0.418-0.417-0.627-0.921-0.627-1.51v-2.1c0-0.565,0.208-1.044,0.627-1.438
		c0.395-0.343,0.848-0.516,1.363-0.516c0.05,0,0.11,0,0.184,0c1.154,0.074,2.063,0.111,2.728,0.111h16.648
		C250.917,239.844,251.359,239.832,251.78,239.807z"/>
	<path fill="#FFFFFF" d="M287.732,248.905c0,0.172,0.098,0.259,0.293,0.259h3.611c0.344,0,0.748-0.013,1.215-0.037
		c0.049,0,0.098,0,0.148,0c0.518,0,0.971,0.171,1.361,0.516c0.443,0.393,0.664,0.871,0.664,1.436v1.18
		c0,0.589-0.209,1.093-0.627,1.51c-0.418,0.393-0.918,0.589-1.51,0.589h-0.037c-0.367,0-0.688,0-0.957,0h-3.721
		c-0.199,0-0.283,0.086-0.258,0.257c0,0.566,0.023,1.597,0.072,3.095c0.051,1.499,0.082,2.647,0.092,3.445
		c0.014,0.798,0.031,1.786,0.057,2.964c0.049,1.621,0.072,2.691,0.072,3.205c0,1.055-0.381,1.928-1.141,2.615
		c-0.764,0.688-1.77,1.033-3.021,1.033c-1.229,0-2.531-0.025-3.906-0.074c-0.612-0.025-1.143-0.258-1.585-0.701
		c-0.441-0.441-0.688-0.969-0.736-1.584l-0.037-0.809c-0.048-0.566,0.135-1.045,0.552-1.438c0.369-0.369,0.798-0.553,1.291-0.553
		c0.051,0,0.109,0.012,0.184,0.035c0.811,0.051,1.477,0.074,1.991,0.074c0.344,0,0.589-0.098,0.735-0.293
		c0.147-0.197,0.222-0.504,0.222-0.922c0-2.26-0.013-4.076-0.037-5.451c0-0.05-0.018-0.081-0.054-0.093
		c-0.037-0.013-0.082-0.005-0.13,0.019c-1.153,1.351-2.603,2.75-4.345,4.199c-1.745,1.448-3.501,2.713-5.27,3.795
		c-0.393,0.244-0.823,0.367-1.289,0.367c-0.147,0-0.295-0.014-0.441-0.037c-0.64-0.098-1.167-0.393-1.582-0.883l-1.107-1.291
		c-0.271-0.318-0.405-0.663-0.405-1.031c0-0.123,0.012-0.246,0.036-0.369c0.122-0.539,0.418-0.933,0.885-1.178
		c2.111-1.105,4.113-2.395,6.005-3.869c1.89-1.474,3.438-2.921,4.641-4.347c0.024-0.024,0.024-0.061,0-0.11
		c-0.022-0.049-0.062-0.074-0.111-0.074h-6.594c-0.491,0-1.08,0.013-1.768,0.037c-0.025,0-0.05,0-0.074,0
		c-0.565,0-1.043-0.197-1.436-0.589c-0.443-0.393-0.664-0.884-0.664-1.474v-1.253c0-0.565,0.221-1.044,0.664-1.437
		c0.392-0.345,0.846-0.516,1.361-0.516c0.05,0,0.099,0,0.148,0c0.615,0.024,1.153,0.037,1.621,0.037h9.393
		c0.172,0,0.259-0.086,0.259-0.258l-0.074-1.584c-0.024-0.417-0.05-0.859-0.073-1.326c0-0.049,0-0.111,0-0.185
		c0-0.491,0.159-0.933,0.479-1.327c0.392-0.417,0.873-0.625,1.437-0.625h1.474c0.59,0,1.08,0.208,1.477,0.625
		c0.367,0.418,0.551,0.909,0.551,1.474l-0.037,1.363L287.732,248.905z"/>
	<path fill="#FFFFFF" d="M307.809,268.098c-0.416,0.467-0.945,0.725-1.584,0.775c-0.1,0-0.197,0-0.295,0
		c-0.541,0-1.031-0.148-1.475-0.443l-1.953-1.289c-0.465-0.318-0.699-0.762-0.699-1.326c0-0.492,0.186-0.908,0.553-1.252
		c2.111-1.966,3.672-4.482,4.678-7.553c0.713-2.137,1.068-7.048,1.068-14.735c0-0.639-0.012-1.216-0.037-1.731
		c-0.023-0.074-0.035-0.148-0.035-0.222c0-0.466,0.158-0.896,0.479-1.289c0.369-0.442,0.824-0.663,1.363-0.663h2.357
		c0.59,0,1.068,0.221,1.438,0.663c0.344,0.393,0.516,0.835,0.516,1.326l-0.074,1.843c0,8.055-0.367,13.495-1.105,16.319
		C312.045,262.181,310.312,265.373,307.809,268.098z M323.869,268.578c-0.514,0.295-1.092,0.441-1.73,0.441
		c-0.025,0-0.051,0-0.074,0c-0.639,0-1.191-0.197-1.658-0.59l-0.48-0.369c-0.906-0.76-1.361-1.805-1.361-3.13
		c0-0.123,0-0.259,0-0.405c0.023-0.344,0.037-0.676,0.037-0.994v-21.625l-0.074-1.547c0-0.491,0.172-0.933,0.516-1.326
		c0.369-0.443,0.834-0.664,1.4-0.664h2.432c0.564,0,1.043,0.221,1.436,0.664c0.318,0.393,0.48,0.847,0.48,1.363l-0.037,1.547v18.272
		c0,0.073,0.023,0.128,0.074,0.165c0.049,0.037,0.109,0.043,0.184,0.019c2.357-1.056,4.617-2.848,6.779-5.377
		c0.342-0.418,0.771-0.626,1.289-0.626h0.035c0.541,0.025,0.959,0.245,1.254,0.663l1.031,1.511c0.344,0.467,0.516,1.007,0.516,1.621
		c0,0.713-0.232,1.313-0.699,1.805c-1.549,1.646-3.359,3.248-5.434,4.808C327.705,266.361,325.734,267.619,323.869,268.578z"/>
	<path fill="#FFFFFF" d="M369.068,239.512c0.172,0.294,0.258,0.602,0.258,0.921c0,0.221-0.035,0.442-0.109,0.663
		c-0.197,0.541-0.564,0.921-1.105,1.142c-0.051,0.024-0.074,0.068-0.074,0.128c0,0.062,0.023,0.105,0.074,0.128l1.252,0.774
		c0.516,0.319,0.848,0.773,0.996,1.362c0.072,0.222,0.109,0.442,0.109,0.664c0,0.368-0.088,0.724-0.258,1.069
		c-0.172,0.393-0.318,0.773-0.441,1.142c-1.201,3.339-2.826,6.52-4.861,9.541c-0.125,0.146-0.1,0.282,0.074,0.405
		c0.562,0.368,1.078,0.701,1.545,0.995c0.492,0.344,0.787,0.811,0.885,1.399c0,0.124,0,0.235,0,0.332
		c0,0.442-0.135,0.86-0.406,1.253l-1.51,1.953c-0.367,0.467-0.848,0.724-1.438,0.773c-0.072,0.023-0.16,0.037-0.258,0.037
		c-0.492,0-0.932-0.16-1.326-0.48c-0.467-0.343-0.994-0.736-1.584-1.179c-0.148-0.097-0.283-0.086-0.404,0.037
		c-3.242,3.415-6.977,6.079-11.199,7.995c-0.441,0.17-0.896,0.258-1.363,0.258c-0.172,0-0.357-0.014-0.553-0.037
		c-0.66-0.098-1.24-0.369-1.73-0.811l-2.064-1.77c-0.27-0.244-0.406-0.539-0.406-0.883c0-0.1,0.012-0.197,0.039-0.295
		c0.072-0.467,0.342-0.773,0.809-0.922c4.445-1.645,8.215-3.99,11.311-7.035c0.146-0.148,0.133-0.271-0.039-0.369
		c-1.447-0.933-2.859-1.817-4.234-2.653c-0.467-0.295-0.75-0.712-0.848-1.253c-0.025-0.123-0.037-0.234-0.037-0.332
		c0-0.418,0.16-0.797,0.479-1.142l0.994-1.142c0.42-0.466,0.945-0.761,1.586-0.884c0.17-0.024,0.332-0.037,0.479-0.037
		c0.441,0,0.871,0.11,1.289,0.332c1.549,0.835,2.973,1.634,4.273,2.395c0.148,0.073,0.271,0.036,0.367-0.11
		c1.621-2.407,2.678-4.543,3.168-6.41c0.023-0.049,0.02-0.104-0.018-0.165c-0.037-0.062-0.092-0.092-0.166-0.092h-9.135
		c-0.197,0-0.355,0.074-0.477,0.222c-2.434,3.144-5.098,5.857-7.996,8.142c-0.492,0.393-1.057,0.589-1.695,0.589h-0.037
		c-0.639-0.024-1.217-0.233-1.732-0.626l-1.51-1.142c-0.393-0.319-0.59-0.724-0.59-1.216c0-0.565,0.234-1.007,0.701-1.326
		c1.275-0.884,2.467-1.829,3.572-2.836s2.074-2.026,2.91-3.058c0.834-1.031,1.506-1.903,2.008-2.615s1.049-1.535,1.639-2.469
		c0.418-0.639,0.836-1.448,1.252-2.431c0.246-0.565,0.639-0.982,1.18-1.253c0.318-0.171,0.65-0.257,0.994-0.257
		c0.221,0,0.443,0.037,0.664,0.11l2.432,0.737c0.516,0.172,0.871,0.503,1.068,0.995c0.049,0.198,0.072,0.393,0.072,0.589
		c0,0.294-0.086,0.59-0.256,0.884c-0.271,0.467-0.578,0.983-0.922,1.548c-0.025,0.05-0.025,0.105,0,0.166
		c0.023,0.061,0.074,0.091,0.146,0.091h5.969c0.932,0,1.854-0.086,2.764-0.258c0.17-0.023,0.221-0.122,0.146-0.294
		c-0.441-0.859-0.836-1.595-1.178-2.21c-0.148-0.27-0.223-0.54-0.223-0.81c0-0.172,0.023-0.356,0.074-0.553
		c0.148-0.467,0.455-0.787,0.92-0.958c0.271-0.123,0.553-0.185,0.848-0.185c0.246,0,0.48,0.037,0.701,0.111
		c0.539,0.171,0.945,0.492,1.215,0.958C368.443,238.37,368.752,238.923,369.068,239.512z M369.291,237.45
		c-0.172-0.271-0.258-0.541-0.258-0.812c0-0.171,0.023-0.344,0.072-0.516c0.146-0.465,0.455-0.797,0.922-0.995
		c0.27-0.098,0.553-0.147,0.85-0.147c0.242,0,0.477,0.037,0.697,0.111c0.539,0.172,0.957,0.492,1.254,0.958
		c0.344,0.566,0.686,1.167,1.031,1.806c0.146,0.271,0.221,0.541,0.221,0.81c0,0.198-0.037,0.393-0.111,0.589
		c-0.172,0.492-0.492,0.848-0.957,1.068c-0.27,0.099-0.541,0.148-0.811,0.148c-0.246,0-0.479-0.037-0.701-0.111
		c-0.514-0.197-0.896-0.528-1.141-0.995C369.99,238.678,369.635,238.039,369.291,237.45z"/>
	<path fill="#FFFFFF" d="M380.6,256.532c-0.021,0-0.059,0-0.111,0c-0.539,0-1.006-0.197-1.398-0.59
		c-0.443-0.393-0.664-0.885-0.664-1.474v-2.874c0-0.565,0.221-1.055,0.664-1.474c0.391-0.369,0.859-0.552,1.398-0.552
		c0.023,0,0.061,0,0.111,0c1.793,0.098,3.24,0.147,4.346,0.147h20.041c0.686,0,1.512-0.037,2.467-0.111c0.051,0,0.1,0,0.148,0
		c0.516,0,0.971,0.184,1.363,0.553c0.441,0.393,0.664,0.872,0.664,1.437v2.874c0,0.589-0.223,1.092-0.664,1.511
		c-0.393,0.368-0.848,0.553-1.363,0.553c-0.049,0-0.098,0-0.148,0c-1.027-0.074-1.852-0.111-2.467-0.111h-20.041
		C383.67,256.421,382.221,256.458,380.6,256.532z"/>
</g>
<g>
	<path fill="#4B8F00" d="M307.649,75.803c0.431,0,0.804,0.152,1.118,0.457c0.313,0.306,0.472,0.684,0.472,1.132v0.161
		c0,0.432-0.158,0.805-0.472,1.12c-0.314,0.314-0.688,0.472-1.118,0.472h-4.044c-0.126,0-0.188,0.062-0.188,0.188v2.399
		c0,0.916-0.122,1.621-0.364,2.115c-0.243,0.494-0.68,0.867-1.309,1.118c-0.809,0.306-2.003,0.476-3.584,0.512
		c-0.02,0-0.034,0-0.055,0c-0.432,0-0.816-0.143-1.158-0.431c-0.36-0.288-0.612-0.656-0.756-1.105
		c-0.072-0.162-0.135-0.333-0.188-0.512c-0.054-0.126-0.08-0.252-0.08-0.376c0-0.198,0.062-0.386,0.189-0.566
		c0.215-0.288,0.493-0.432,0.835-0.432h0.026c0.56,0,1.186,0,1.886,0c0.233,0,0.396-0.032,0.485-0.095
		c0.091-0.062,0.136-0.183,0.136-0.364v-2.265c0-0.125-0.072-0.188-0.216-0.188h-7.439c-0.036,0-0.06,0.013-0.067,0.04
		c-0.009,0.026,0.006,0.05,0.04,0.067c0.683,0.558,1.294,1.105,1.834,1.644c0.252,0.27,0.377,0.575,0.377,0.917
		c0,0.054-0.011,0.118-0.027,0.188c-0.054,0.431-0.252,0.772-0.593,1.024l-0.674,0.485c-0.27,0.198-0.566,0.296-0.89,0.296
		c-0.089,0-0.179-0.01-0.269-0.027c-0.431-0.071-0.79-0.269-1.079-0.593c-0.467-0.521-0.996-1.059-1.589-1.617
		c-0.287-0.251-0.432-0.566-0.432-0.943c0-0.431,0.179-0.772,0.541-1.024l0.512-0.35c0.016-0.018,0.02-0.041,0.013-0.067
		c-0.011-0.027-0.023-0.04-0.041-0.04h-4.016c-0.432,0-0.806-0.158-1.12-0.472c-0.313-0.315-0.471-0.688-0.471-1.119v-0.162
		c0-0.45,0.157-0.826,0.471-1.132c0.314-0.305,0.688-0.457,1.12-0.457h13.8c0.143,0,0.217-0.071,0.217-0.216v-0.701
		c0-0.126-0.072-0.188-0.217-0.188h-11.186c-0.433,0-0.806-0.157-1.118-0.471c-0.315-0.314-0.473-0.688-0.473-1.12V66.61
		c0-0.431,0.157-0.805,0.473-1.119c0.312-0.314,0.686-0.473,1.118-0.473h6.175c0.123,0,0.187-0.062,0.187-0.188v-0.485
		c0-0.125-0.063-0.189-0.187-0.189h-8.116c-0.45,0-0.826-0.157-1.132-0.471c-0.306-0.314-0.458-0.688-0.458-1.119v-0.082
		c0-0.449,0.152-0.826,0.458-1.131c0.306-0.305,0.684-0.458,1.132-0.458h8.116c0.123,0,0.187-0.062,0.187-0.188
		c0-0.395,0.143-0.736,0.431-1.025c0.287-0.288,0.629-0.431,1.024-0.431h1.052c0.395,0,0.735,0.143,1.022,0.431
		c0.287,0.289,0.434,0.63,0.434,1.025c0,0.126,0.052,0.188,0.159,0.188h8.355c0.45,0,0.826,0.153,1.133,0.458
		c0.306,0.305,0.458,0.684,0.458,1.131v0.082c0,0.431-0.152,0.805-0.458,1.119c-0.307,0.314-0.684,0.471-1.133,0.471h-8.328
		c-0.126,0-0.186,0.064-0.186,0.189v0.485c0,0.126,0.06,0.188,0.186,0.188h6.55c0.432,0,0.805,0.159,1.119,0.473
		c0.313,0.314,0.472,0.688,0.472,1.119v6.496c0,0.432-0.158,0.806-0.472,1.12c-0.314,0.314-0.688,0.471-1.119,0.471h-1.536
		c-0.126,0-0.188,0.062-0.188,0.188v0.701c0,0.144,0.062,0.216,0.188,0.216L307.649,75.803L307.649,75.803z M290.452,67.689
		c-0.125,0-0.188,0.062-0.188,0.189v0.539c0,0.143,0.063,0.215,0.188,0.215h3.804c0.122,0,0.187-0.071,0.187-0.215v-0.539
		c0-0.126-0.064-0.189-0.187-0.189H290.452z M290.452,71.112c-0.125,0-0.188,0.062-0.188,0.189v0.512
		c0,0.144,0.063,0.216,0.188,0.216h3.804c0.122,0,0.187-0.072,0.187-0.216v-0.512c0-0.126-0.064-0.189-0.187-0.189H290.452z
		 M302.771,67.878c0-0.126-0.062-0.189-0.188-0.189h-3.99c-0.127,0-0.186,0.062-0.186,0.189v0.539c0,0.143,0.059,0.215,0.186,0.215
		h3.99c0.125,0,0.188-0.071,0.188-0.215V67.878z M302.581,72.029c0.126,0,0.189-0.072,0.189-0.216v-0.512
		c0-0.126-0.063-0.189-0.189-0.189h-3.989c-0.126,0-0.186,0.062-0.186,0.189v0.512c0,0.144,0.06,0.216,0.186,0.216H302.581z"/>
	<path fill="#4B8F00" d="M333.876,60.438c0.43,0,0.804,0.157,1.117,0.471c0.314,0.315,0.473,0.688,0.473,1.12v18.328
		c0,1.008-0.126,1.793-0.378,2.358c-0.251,0.565-0.673,1.002-1.266,1.308c-0.737,0.376-2.014,0.602-3.828,0.674
		c-0.019,0-0.035,0-0.054,0c-0.432,0-0.81-0.145-1.132-0.432c-0.36-0.289-0.611-0.666-0.755-1.132
		c-0.071-0.27-0.16-0.539-0.27-0.809c-0.054-0.125-0.08-0.251-0.08-0.376c0-0.197,0.062-0.386,0.189-0.566
		c0.197-0.305,0.466-0.458,0.808-0.458h0.025c0.576,0.019,1.262,0.027,2.052,0.027c0.446,0,0.672-0.216,0.672-0.647v-3.1
		c0-0.144-0.062-0.216-0.188-0.216h-4.528c-0.126,0-0.188,0.072-0.188,0.216v5.687c0,0.432-0.157,0.805-0.47,1.12
		c-0.315,0.314-0.688,0.472-1.12,0.472h-0.862c-0.43,0-0.806-0.158-1.12-0.472c-0.313-0.315-0.471-0.688-0.471-1.12v-5.687
		c0-0.144-0.062-0.216-0.188-0.216h-4.583c-0.143,0-0.224,0.062-0.242,0.188c-0.485,2.695-1.312,4.897-2.479,6.604
		c-0.234,0.342-0.575,0.522-1.025,0.539c-0.019,0-0.035,0-0.054,0c-0.415,0-0.765-0.135-1.05-0.404
		c-0.125-0.091-0.253-0.188-0.377-0.296c-0.127-0.108-0.244-0.208-0.352-0.296c-0.324-0.252-0.521-0.583-0.593-0.998
		c-0.019-0.09-0.027-0.179-0.027-0.27c0-0.304,0.09-0.593,0.27-0.862c0.306-0.449,0.575-0.926,0.811-1.429
		c0.449-1.006,0.771-2.089,0.97-3.248c0.197-1.16,0.327-2.184,0.39-3.073c0.063-0.889,0.095-1.937,0.095-3.141v-8.274
		c0-0.432,0.157-0.804,0.472-1.12c0.314-0.314,0.688-0.471,1.12-0.471h18.218V60.438z M317.972,73c0,0.143,0.063,0.216,0.189,0.216
		h4.15c0.126,0,0.188-0.072,0.188-0.216v-2.317c0-0.126-0.062-0.189-0.188-0.189h-4.043c-0.144,0-0.217,0.072-0.217,0.216
		C318.053,71.427,318.025,72.191,317.972,73z M322.5,64.427c0-0.125-0.062-0.188-0.188-0.188h-4.043
		c-0.144,0-0.217,0.062-0.217,0.188v2.156c0,0.126,0.072,0.189,0.217,0.189h4.043c0.126,0,0.188-0.063,0.188-0.189V64.427z
		 M331.26,66.773c0.126,0,0.189-0.062,0.189-0.189v-2.157c0-0.125-0.063-0.188-0.189-0.188h-4.528c-0.126,0-0.187,0.062-0.187,0.188
		v2.156c0,0.126,0.061,0.189,0.187,0.189L331.26,66.773L331.26,66.773z M326.544,73c0,0.143,0.062,0.216,0.188,0.216h4.527
		c0.127,0,0.189-0.072,0.189-0.216v-2.317c0-0.126-0.062-0.189-0.189-0.189h-4.527c-0.126,0-0.188,0.062-0.188,0.189V73z"/>
	<path fill="#4B8F00" d="M360.424,61.921c0.126,0,0.252,0,0.376,0c0.953,0,1.744,0.296,2.373,0.89l0.323,0.296
		c0.324,0.288,0.504,0.655,0.539,1.105c0,0.054,0,0.107,0,0.161c0,0.396-0.117,0.746-0.351,1.051
		c-0.107,0.161-0.198,0.296-0.269,0.404c-0.648,1.078-1.447,2.219-2.399,3.423c-0.951,1.204-1.914,2.246-2.884,3.126
		c-0.342,0.324-0.746,0.485-1.213,0.485s-0.889-0.152-1.267-0.457l-0.943-0.782c-0.305-0.233-0.455-0.539-0.455-0.916
		c0-0.414,0.159-0.746,0.482-0.998c0.684-0.557,1.312-1.15,1.89-1.779c0.573-0.628,1.005-1.186,1.29-1.671
		c0.019-0.036,0.015-0.076-0.013-0.122c-0.028-0.045-0.059-0.067-0.092-0.067h-13.426c-0.629,0-1.277,0.027-1.94,0.082
		c-0.037,0-0.081,0-0.135,0c-0.36,0-0.684-0.126-0.971-0.378c-0.306-0.287-0.458-0.637-0.458-1.051v-1.429
		c0-0.431,0.152-0.781,0.458-1.05c0.27-0.233,0.583-0.351,0.942-0.351c0.056,0,0.108,0,0.162,0c0.683,0.072,1.33,0.108,1.941,0.108
		h14.312C359.202,62.002,359.777,61.976,360.424,61.921z M348.618,69.388c0-0.377,0.126-0.7,0.38-0.97
		c0.267-0.324,0.609-0.486,1.021-0.486h1.671c0.449,0,0.827,0.153,1.133,0.458c0.305,0.306,0.458,0.684,0.458,1.132
		c0,0.899-0.015,1.671-0.041,2.318c-0.027,0.647-0.091,1.388-0.188,2.224c-0.1,0.835-0.233,1.568-0.404,2.196
		c-0.172,0.63-0.415,1.312-0.726,2.049c-0.315,0.736-0.691,1.406-1.121,2.007c-0.432,0.604-0.968,1.213-1.604,1.833
		c-0.636,0.62-1.37,1.2-2.196,1.739c-0.359,0.233-0.737,0.35-1.133,0.35c-0.054,0-0.116-0.01-0.188-0.027
		c-0.468-0.036-0.891-0.207-1.268-0.513l-1.429-1.159c-0.231-0.18-0.35-0.405-0.35-0.675c0-0.054,0.008-0.115,0.026-0.188
		c0.054-0.34,0.243-0.593,0.566-0.755c0.557-0.288,1.113-0.647,1.672-1.079c1.473-1.113,2.466-2.332,2.978-3.652
		c0.514-1.321,0.769-3.158,0.769-5.513L348.618,69.388z"/>
	<path fill="#4B8F00" d="M371.583,62.891h12.184c0.61,0,1.203-0.036,1.778-0.107c0.126-0.019,0.189-0.099,0.189-0.243
		c0-0.036,0-0.09,0-0.163c0-0.933,0.332-1.739,0.996-2.412c0.665-0.673,1.47-1.01,2.413-1.01c0.942,0,1.748,0.337,2.413,1.01
		c0.664,0.673,0.999,1.479,0.999,2.412c0,0.881-0.304,1.649-0.906,2.305c-0.602,0.657-1.343,1.028-2.223,1.119
		c-0.143,0-0.232,0.062-0.27,0.188c-0.09,0.288-0.179,0.612-0.27,0.97c-0.306,1.205-0.588,2.247-0.849,3.128
		c-0.262,0.88-0.697,1.999-1.309,3.355c-0.611,1.357-1.276,2.529-1.995,3.517c-1.132,1.528-2.529,2.91-4.19,4.151
		c-1.662,1.24-3.518,2.264-5.566,3.073c-0.252,0.09-0.521,0.135-0.809,0.135c-0.179,0-0.369-0.018-0.565-0.054
		c-0.468-0.126-0.863-0.369-1.188-0.729l-1.509-1.643c-0.161-0.198-0.243-0.405-0.243-0.62c0-0.089,0.018-0.188,0.055-0.297
		c0.107-0.34,0.334-0.557,0.674-0.646c3.882-1.132,6.981-3.126,9.299-5.984c1.527-1.886,2.534-4.195,3.021-6.928
		c0.018-0.143-0.047-0.216-0.189-0.216h-11.94c-0.593,0-1.258,0.019-1.993,0.054c-0.02,0-0.047,0-0.083,0
		c-0.396,0-0.736-0.135-1.022-0.404c-0.325-0.306-0.486-0.664-0.486-1.079v-1.562c0-0.414,0.161-0.765,0.486-1.051
		c0.268-0.252,0.593-0.376,0.968-0.376c0.037,0,0.081,0,0.138,0C370.433,62.855,371.098,62.891,371.583,62.891z M388.105,63.404
		c0.287,0.288,0.634,0.431,1.038,0.431c0.407,0,0.75-0.143,1.041-0.431c0.284-0.288,0.428-0.629,0.428-1.025
		c0-0.395-0.144-0.736-0.428-1.024c-0.291-0.288-0.634-0.431-1.041-0.431c-0.404,0-0.751,0.143-1.038,0.431
		c-0.288,0.288-0.432,0.629-0.432,1.024C387.674,62.774,387.817,63.117,388.105,63.404z"/>
	<path fill="#4B8F00" d="M398.212,62.945c0-0.395,0.144-0.746,0.432-1.051c0.287-0.324,0.638-0.485,1.051-0.485h1.779
		c0.413,0,0.766,0.161,1.05,0.485c0.288,0.305,0.432,0.656,0.432,1.051c0,0.019,0,0.036,0,0.054c0,0.198,0,0.396,0,0.593v9.381
		c0,0.269,0,0.602,0,0.997c0,0.019,0,0.036,0,0.055c0,0.414-0.135,0.763-0.402,1.05c-0.308,0.324-0.666,0.486-1.08,0.486h-1.804
		c-0.433,0-0.792-0.162-1.081-0.486c-0.27-0.288-0.404-0.628-0.404-1.023c0-0.018,0-0.045,0-0.082
		c0.021-0.414,0.026-0.754,0.026-1.023v-9.354v-0.648H398.212z M410.935,62.648c0-0.376,0.126-0.709,0.378-0.998
		c0.287-0.324,0.637-0.485,1.049-0.485h1.78c0.431,0,0.79,0.161,1.079,0.485c0.287,0.288,0.43,0.638,0.43,1.051
		c0,0.019-0.01,0.036-0.026,0.054c0,0.468,0,0.935,0,1.402v6.012c0,2.624-0.282,4.734-0.85,6.333
		c-0.566,1.6-1.415,2.992-2.547,4.178c-1.294,1.348-3.057,2.489-5.283,3.423c-0.27,0.108-0.549,0.162-0.833,0.162
		c-0.183,0-0.362-0.019-0.542-0.054c-0.466-0.108-0.871-0.341-1.212-0.701l-1.321-1.402c-0.161-0.178-0.243-0.376-0.243-0.593
		c0-0.09,0.01-0.188,0.027-0.296c0.107-0.341,0.332-0.557,0.674-0.647c2.229-0.665,3.98-1.662,5.257-2.992
		c0.88-0.934,1.473-1.954,1.778-3.059c0.304-1.105,0.458-2.655,0.458-4.649v-5.715L410.935,62.648z"/>
	<path fill="#4B8F00" d="M428.939,62.083c0.019-0.431,0.179-0.79,0.485-1.078c0.27-0.251,0.583-0.376,0.942-0.376
		c0.054,0,0.107,0.009,0.162,0.026l1.752,0.189c0.414,0.036,0.747,0.224,0.998,0.566c0.179,0.251,0.27,0.521,0.27,0.808
		c0,0.108-0.019,0.216-0.055,0.325c-0.055,0.323-0.126,0.683-0.216,1.077c-0.107,0.558-0.251,1.231-0.432,2.022
		c0,0.054,0.015,0.099,0.041,0.135c0.026,0.036,0.066,0.054,0.121,0.054c0.628-0.054,1.177-0.081,1.645-0.081
		c3.484,0,5.229,1.86,5.229,5.58c0,1.87-0.122,3.729-0.364,5.58c-0.243,1.85-0.633,3.333-1.171,4.447
		c-0.45,0.934-1.065,1.607-1.847,2.021c-0.781,0.414-1.758,0.619-2.925,0.619c-0.521,0-1.104-0.036-1.753-0.107
		c-0.466-0.072-0.866-0.279-1.199-0.621c-0.332-0.34-0.534-0.754-0.606-1.239l-0.217-1.213c0-0.072,0-0.135,0-0.188
		c0-0.288,0.108-0.539,0.323-0.755c0.218-0.197,0.459-0.296,0.73-0.296c0.088,0,0.169,0.009,0.241,0.026
		c0.81,0.144,1.41,0.216,1.806,0.216c0.88,0,1.49-0.35,1.833-1.051c0.323-0.628,0.574-1.606,0.754-2.938
		c0.18-1.329,0.27-2.686,0.27-4.07c0-0.933-0.188-1.541-0.565-1.819c-0.377-0.278-1.033-0.417-1.966-0.417
		c-0.182,0-0.54,0.019-1.079,0.055c-0.127,0-0.209,0.071-0.243,0.215c-0.593,2.246-1.294,4.542-2.104,6.887
		c-0.809,2.346-1.653,4.381-2.534,6.106c-0.216,0.395-0.538,0.664-0.969,0.809c-0.198,0.071-0.396,0.107-0.593,0.107
		c-0.234,0-0.468-0.045-0.699-0.135l-1.377-0.538c-0.376-0.162-0.618-0.431-0.727-0.809c-0.056-0.144-0.082-0.279-0.082-0.405
		c0-0.251,0.072-0.485,0.216-0.7c1.725-2.767,3.208-6.379,4.447-10.836c0.018-0.035,0.013-0.071-0.026-0.107
		c-0.036-0.036-0.072-0.054-0.107-0.054c-0.162,0.018-0.675,0.09-1.537,0.215c-0.538,0.072-1.131,0.153-1.778,0.243
		c-0.091,0.019-0.172,0.027-0.243,0.027c-0.323,0-0.629-0.108-0.916-0.324c-0.321-0.269-0.504-0.611-0.539-1.023l-0.107-1.294
		c-0.036-0.414,0.09-0.769,0.377-1.064c0.288-0.296,0.647-0.455,1.077-0.473c0.163,0,0.329,0,0.5,0c0.17,0,0.363-0.003,0.578-0.013
		c0.216-0.009,0.387-0.014,0.513-0.014c0.449-0.018,1.432-0.081,2.938-0.188c0.144,0,0.225-0.072,0.242-0.216
		C428.706,64.537,428.867,63.234,428.939,62.083z M440.181,66.315c-0.128-0.216-0.19-0.45-0.19-0.7c0-0.126,0.019-0.26,0.055-0.405
		c0.107-0.395,0.35-0.664,0.73-0.809l1.049-0.431c0.232-0.108,0.476-0.162,0.729-0.162c0.179,0,0.367,0.026,0.565,0.081
		c0.449,0.144,0.781,0.422,0.998,0.835c1.221,2.193,2.345,4.7,3.369,7.521c0.071,0.198,0.108,0.396,0.108,0.593
		c0,0.216-0.056,0.441-0.163,0.674c-0.179,0.414-0.477,0.719-0.89,0.916l-1.321,0.619c-0.198,0.09-0.386,0.136-0.566,0.136
		c-0.18,0-0.359-0.045-0.538-0.136c-0.377-0.178-0.62-0.466-0.729-0.862C442.542,71.112,441.473,68.489,440.181,66.315z"/>
	<path fill="#4B8F00" d="M453.655,67.151c0.036-0.431,0.216-0.782,0.539-1.051c0.269-0.233,0.574-0.35,0.917-0.35
		c0.071,0,0.143,0.009,0.216,0.026l1.293,0.163c0.413,0.071,0.745,0.279,0.997,0.62c0.181,0.269,0.272,0.557,0.272,0.862
		c0,0.09-0.012,0.189-0.029,0.296c-0.286,1.456-0.494,2.777-0.619,3.962c0,0.036,0.018,0.067,0.057,0.095
		c0.033,0.026,0.068,0.022,0.104-0.015c2.268-1.383,4.726-2.075,7.387-2.075c1.239,0,2.371,0.179,3.395,0.539s1.859,0.85,2.508,1.47
		c0.646,0.619,1.146,1.316,1.495,2.088c0.352,0.772,0.526,1.582,0.526,2.426c0,1.007-0.145,1.932-0.432,2.777
		s-0.771,1.64-1.455,2.385c-0.682,0.746-1.56,1.362-2.629,1.846c-1.068,0.485-2.421,0.845-4.056,1.079
		c-1.112,0.144-2.327,0.216-3.64,0.216c-0.629,0-1.283-0.019-1.967-0.054c-0.467-0.019-0.89-0.179-1.267-0.486
		c-0.377-0.306-0.629-0.683-0.755-1.131l-0.401-1.294c-0.039-0.107-0.058-0.215-0.058-0.323c0-0.234,0.09-0.441,0.269-0.62
		c0.217-0.251,0.477-0.376,0.782-0.376c0.036,0,0.08,0,0.136,0c1.114,0.126,2.146,0.188,3.101,0.188c1.977,0,3.603-0.26,4.878-0.782
		c1.887-0.736,2.83-1.904,2.83-3.503c0-0.772-0.342-1.416-1.024-1.927c-0.684-0.512-1.562-0.769-2.642-0.769
		c-1.419,0-2.753,0.257-4.003,0.769c-1.249,0.511-2.269,1.245-3.059,2.196c-0.107,0.143-0.208,0.269-0.297,0.376
		c-0.306,0.377-0.673,0.656-1.104,0.835c-0.27,0.126-0.538,0.189-0.809,0.189c-0.162,0-0.315-0.018-0.459-0.054l-0.7-0.189
		c-0.432-0.107-0.771-0.35-1.024-0.728c-0.178-0.288-0.269-0.594-0.269-0.917c0-0.107,0-0.207,0-0.296
		C453.108,72.829,453.439,70.007,453.655,67.151z M458.104,64.751c-0.432-0.108-0.765-0.351-0.998-0.728
		c-0.143-0.251-0.216-0.512-0.216-0.782c0-0.125,0.019-0.26,0.055-0.404l0.241-0.89c0.111-0.432,0.352-0.755,0.729-0.971
		c0.252-0.143,0.521-0.216,0.809-0.216c0.125,0,0.261,0.019,0.404,0.055c2.246,0.538,4.924,1.042,8.033,1.509
		c0.432,0.054,0.764,0.252,0.998,0.593c0.161,0.252,0.241,0.513,0.241,0.782c0,0.126-0.009,0.252-0.026,0.376l-0.243,0.998
		c-0.107,0.431-0.35,0.772-0.727,1.024c-0.289,0.198-0.594,0.295-0.917,0.295c-0.108,0-0.208-0.008-0.296-0.026
		C463.71,65.937,461.014,65.398,458.104,64.751z"/>
	<path fill="#4B8F00" d="M321.61,99.398c0.413,0,0.764,0.144,1.052,0.431c0.289,0.289,0.431,0.639,0.431,1.051
		c0,0.412-0.142,0.768-0.431,1.064c-0.288,0.296-0.639,0.445-1.052,0.445h-2.184c-0.033,0-0.062,0.019-0.08,0.054
		c-0.019,0.037-0.019,0.072,0,0.108l0.025,0.054c0.144,0.198,0.219,0.396,0.219,0.593c0,0.144-0.039,0.296-0.109,0.458
		c-0.163,0.359-0.441,0.593-0.836,0.7l-1.725,0.458c-0.019,0-0.027,0.009-0.027,0.026c0,0.018,0.01,0.027,0.027,0.027h3.45
		c0.448,0,0.826,0.153,1.132,0.458c0.304,0.305,0.46,0.683,0.46,1.131v13.45c0,0.898-0.105,1.595-0.312,2.089
		c-0.206,0.494-0.579,0.875-1.119,1.145c-0.683,0.359-1.698,0.557-3.045,0.593c-0.019,0-0.037,0-0.056,0
		c-0.43,0-0.817-0.143-1.159-0.431c-0.357-0.288-0.602-0.656-0.727-1.105c-0.072-0.252-0.153-0.503-0.243-0.755
		c-0.055-0.126-0.145-0.188-0.271-0.188h-6.334c-0.07,0-0.107,0.036-0.107,0.108c0,0.233-0.08,0.431-0.243,0.593
		c-0.161,0.162-0.35,0.243-0.565,0.243h-1.187c-0.431,0-0.805-0.157-1.119-0.471c-0.313-0.314-0.471-0.688-0.471-1.119v-5.661
		c0-0.431,0.157-0.804,0.471-1.119c0.314-0.314,0.688-0.471,1.119-0.471h7.44c0.432,0,0.804,0.157,1.119,0.471
		c0.312,0.315,0.47,0.688,0.47,1.119v5.202c0,0.126,0.063,0.198,0.189,0.216c0.324,0,0.584,0,0.781,0
		c0.199,0,0.417-0.004,0.662-0.014c0.24-0.01,0.38-0.014,0.415-0.014c0.218,0,0.365-0.031,0.445-0.095
		c0.082-0.062,0.121-0.192,0.121-0.391v-7.143c0-0.143-0.071-0.216-0.217-0.216h-5.309c-0.451,0-0.827-0.151-1.131-0.457
		c-0.308-0.305-0.459-0.683-0.459-1.131v-4.445c0-0.45,0.151-0.826,0.459-1.131c0.304-0.306,0.682-0.458,1.131-0.458h3.693
		c0.054,0,0.089-0.022,0.106-0.067c0.018-0.044,0.018-0.085,0-0.122c-0.342-0.7-0.765-1.409-1.267-2.129
		c-0.091-0.107-0.198-0.162-0.323-0.162h-0.673c-0.145,0-0.254,0.055-0.324,0.162c-0.233,0.288-0.477,0.575-0.729,0.863
		c-0.305,0.341-0.691,0.539-1.159,0.593c-0.091,0.019-0.18,0.026-0.27,0.026c-0.377,0-0.727-0.09-1.051-0.269
		c-0.61-0.341-1.195-0.629-1.752-0.862c-0.089-0.054-0.144-0.13-0.161-0.229c-0.02-0.099,0.018-0.184,0.11-0.257v-0.027h-2.43
		c-0.055,0-0.09,0.019-0.107,0.055c-0.02,0.037-0.02,0.071,0,0.107c0.107,0.18,0.165,0.37,0.165,0.567
		c0,0.161-0.038,0.323-0.111,0.485c-0.161,0.36-0.431,0.593-0.81,0.7l-0.483,0.136c-0.163,0.036-0.314,0.054-0.458,0.054
		c-0.27,0-0.531-0.062-0.782-0.188c-0.414-0.197-0.719-0.494-0.916-0.89c-0.145-0.252-0.289-0.503-0.43-0.755
		c-0.073-0.107-0.146-0.107-0.217,0c-0.289,0.36-0.586,0.711-0.891,1.051c-0.288,0.341-0.665,0.53-1.133,0.566
		c-0.053,0-0.107,0-0.161,0c-0.396,0-0.755-0.117-1.077-0.35c-0.198-0.143-0.405-0.279-0.621-0.405
		c-0.359-0.233-0.538-0.574-0.538-1.023c0-0.325,0.117-0.603,0.351-0.836c0.861-0.881,1.617-1.869,2.264-2.965
		c0.233-0.395,0.56-0.691,0.971-0.89c0.25-0.126,0.511-0.188,0.78-0.188c0.162,0,0.324,0.026,0.485,0.082l1.159,0.296
		c0.27,0.09,0.462,0.26,0.58,0.511c0.116,0.252,0.111,0.512-0.015,0.782c-0.036,0.072-0.009,0.108,0.082,0.108h3.773
		c0.432,0,0.808,0.158,1.119,0.471c0.313,0.314,0.471,0.688,0.471,1.119v0.296c0,0.036,0.014,0.062,0.041,0.082
		c0.025,0.018,0.059,0.01,0.095-0.027c0.772-0.808,1.419-1.68,1.94-2.615c0.233-0.413,0.548-0.718,0.943-0.916
		c0.27-0.143,0.548-0.216,0.835-0.216c0.146,0,0.288,0.019,0.432,0.054l1.159,0.296c0.287,0.072,0.498,0.243,0.634,0.512
		c0.136,0.269,0.131,0.539-0.014,0.81c-0.036,0.09-0.01,0.135,0.081,0.135H321.61L321.61,99.398z M308.324,104.869
		c0.43,0,0.803,0.153,1.116,0.459c0.315,0.305,0.473,0.683,0.473,1.131v4.447c0,0.45-0.157,0.826-0.473,1.131
		c-0.313,0.306-0.687,0.457-1.116,0.457h-5.312c-0.143,0-0.217,0.072-0.217,0.216v9.434c0,0.449-0.152,0.826-0.458,1.132
		c-0.305,0.304-0.684,0.457-1.131,0.457h-0.43c-0.433,0-0.807-0.153-1.12-0.457c-0.314-0.306-0.473-0.684-0.473-1.132V106.46
		c0-0.45,0.158-0.826,0.473-1.131c0.313-0.306,0.688-0.458,1.12-0.458h7.547V104.869z M306.302,107.295
		c0-0.126-0.063-0.188-0.188-0.188h-3.101c-0.143,0-0.217,0.062-0.217,0.188v0.161c0,0.126,0.073,0.189,0.217,0.189h3.101
		c0.125,0,0.188-0.062,0.188-0.189V107.295z M302.797,110.099c0,0.143,0.073,0.215,0.216,0.215h3.102
		c0.125,0,0.188-0.071,0.188-0.215v-0.162c0-0.143-0.063-0.216-0.188-0.216h-3.102c-0.142,0-0.216,0.072-0.216,0.216V110.099z
		 M312.123,115.705c0-0.144-0.07-0.216-0.215-0.216h-3.101c-0.144,0-0.216,0.072-0.216,0.216v0.35c0,0.144,0.07,0.216,0.216,0.216
		h3.101c0.143,0,0.215-0.072,0.215-0.216V115.705z M308.593,118.938c0,0.126,0.071,0.189,0.216,0.189h3.1
		c0.145,0,0.216-0.062,0.216-0.189v-0.404c0-0.126-0.071-0.189-0.216-0.189h-3.1c-0.145,0-0.216,0.062-0.216,0.189V118.938z
		 M318.025,107.646c0.145,0,0.217-0.062,0.217-0.189v-0.161c0-0.126-0.071-0.188-0.217-0.188H314.9
		c-0.127,0-0.189,0.062-0.189,0.188v0.161c0,0.126,0.062,0.189,0.189,0.189H318.025z M314.711,110.099
		c0,0.143,0.062,0.215,0.188,0.215h3.127c0.144,0,0.216-0.071,0.216-0.215v-0.162c0-0.143-0.071-0.216-0.216-0.216h-3.127
		c-0.126,0-0.188,0.072-0.188,0.216V110.099z"/>
	<path fill="#4B8F00" d="M348.998,115.731c0.429,0,0.802,0.158,1.117,0.472c0.312,0.314,0.471,0.688,0.471,1.119v0.539
		c0,0.432-0.158,0.806-0.471,1.119c-0.315,0.314-0.688,0.471-1.117,0.471h-8.844c-0.126,0-0.188,0.062-0.188,0.189v2.507
		c0,0.448-0.157,0.827-0.471,1.132c-0.315,0.304-0.688,0.457-1.119,0.457h-0.97c-0.431,0-0.805-0.153-1.118-0.457
		c-0.315-0.305-0.473-0.684-0.473-1.132v-2.507c0-0.127-0.062-0.189-0.188-0.189h-8.68c-0.432,0-0.804-0.157-1.119-0.471
		c-0.313-0.313-0.472-0.688-0.472-1.119v-0.539c0-0.431,0.158-0.805,0.472-1.119c0.315-0.314,0.688-0.472,1.119-0.472h8.68
		c0.125,0,0.188-0.062,0.188-0.188v-0.97c0-0.143-0.062-0.216-0.188-0.216h-6.308c-0.431,0-0.805-0.153-1.118-0.458
		c-0.315-0.305-0.472-0.683-0.472-1.132v-8.84c0-0.45,0.156-0.826,0.472-1.132c0.313-0.306,0.688-0.458,1.118-0.458h0.405
		c0.035,0,0.066-0.021,0.095-0.067c0.025-0.044,0.022-0.085-0.015-0.122c-0.287-0.539-0.647-1.114-1.079-1.725
		c-0.161-0.233-0.24-0.476-0.24-0.728c0-0.108,0.017-0.225,0.054-0.351c0.106-0.395,0.341-0.673,0.699-0.835l0.566-0.27
		c0.288-0.125,0.575-0.188,0.863-0.188c0.161,0,0.322,0.027,0.485,0.081c0.467,0.09,0.844,0.323,1.131,0.701
		c0.341,0.45,0.647,0.872,0.916,1.267c0.163,0.233,0.243,0.476,0.243,0.729c0,0.143-0.026,0.288-0.08,0.431
		c-0.126,0.415-0.387,0.71-0.781,0.89l-0.189,0.082c-0.019,0.018-0.026,0.04-0.026,0.066c0,0.027,0.018,0.041,0.054,0.041h3.854
		c0.054,0,0.094-0.021,0.121-0.067c0.026-0.044,0.034-0.085,0.014-0.122c-0.287-0.611-0.655-1.293-1.104-2.048
		c-0.145-0.216-0.217-0.44-0.217-0.673c0-0.143,0.027-0.287,0.081-0.432c0.127-0.395,0.378-0.664,0.755-0.809l0.62-0.216
		c0.253-0.107,0.503-0.161,0.756-0.161c0.179,0,0.375,0.027,0.593,0.081c0.449,0.145,0.8,0.405,1.05,0.782
		c0.341,0.485,0.638,0.952,0.89,1.402c0.125,0.217,0.189,0.431,0.189,0.647c0,0.162-0.034,0.333-0.108,0.512
		c-0.143,0.396-0.423,0.673-0.835,0.835l-0.486,0.188c-0.019,0-0.022,0.014-0.013,0.04c0.007,0.027,0.023,0.041,0.041,0.041h3.368
		c0.145,0,0.253-0.062,0.324-0.188c0.646-0.987,1.222-2.039,1.725-3.153c0.179-0.414,0.467-0.718,0.861-0.916
		c0.252-0.126,0.514-0.189,0.782-0.189c0.161,0,0.324,0.019,0.485,0.054l1.429,0.432c0.377,0.107,0.637,0.341,0.781,0.7
		c0.054,0.145,0.082,0.279,0.082,0.405c0,0.233-0.072,0.45-0.217,0.647c-0.485,0.701-0.953,1.384-1.402,2.048
		c-0.017,0.037-0.017,0.072,0,0.108c0.019,0.036,0.044,0.054,0.081,0.054c0.432,0,0.795,0.148,1.091,0.445
		c0.297,0.296,0.445,0.66,0.445,1.091v8.895c0,0.45-0.152,0.827-0.458,1.131c-0.304,0.306-0.684,0.458-1.132,0.458h-6.711
		c-0.127,0-0.188,0.072-0.188,0.216v0.97c0,0.126,0.062,0.188,0.188,0.188h8.842V115.731z M335.627,106.837
		c0.125,0,0.188-0.071,0.188-0.216v-0.862c0-0.143-0.063-0.216-0.188-0.216h-3.775c-0.125,0-0.188,0.072-0.188,0.216v0.862
		c0,0.144,0.062,0.216,0.188,0.216H335.627z M331.664,110.908c0,0.125,0.062,0.188,0.188,0.188h3.775
		c0.125,0,0.188-0.063,0.188-0.188v-0.863c0-0.143-0.063-0.215-0.188-0.215h-3.775c-0.125,0-0.188,0.071-0.188,0.215V110.908z
		 M344.116,106.837c0.144,0,0.218-0.071,0.218-0.216v-0.862c0-0.143-0.073-0.216-0.218-0.216h-3.962
		c-0.127,0-0.188,0.072-0.188,0.216v0.862c0,0.144,0.062,0.216,0.188,0.216H344.116z M344.116,111.096
		c0.144,0,0.218-0.063,0.218-0.188v-0.863c0-0.143-0.073-0.215-0.218-0.215h-3.962c-0.127,0-0.188,0.071-0.188,0.215v0.863
		c0,0.125,0.062,0.188,0.188,0.188H344.116z"/>
	<path fill="#4B8F00" d="M374.225,100.206c0.126,0,0.25,0,0.376,0c0.952,0,1.744,0.296,2.373,0.89l0.324,0.296
		c0.322,0.288,0.502,0.656,0.538,1.105c0,0.054,0,0.107,0,0.162c0,0.396-0.117,0.745-0.351,1.051
		c-0.108,0.161-0.198,0.296-0.267,0.404c-0.65,1.079-1.449,2.22-2.401,3.424c-0.953,1.204-1.914,2.246-2.885,3.127
		c-0.341,0.323-0.744,0.484-1.211,0.484c-0.468,0-0.891-0.152-1.268-0.457l-0.943-0.782c-0.303-0.233-0.458-0.539-0.458-0.916
		c0-0.414,0.162-0.746,0.486-0.998c0.682-0.558,1.31-1.15,1.886-1.779c0.574-0.629,1.006-1.186,1.293-1.672
		c0.019-0.036,0.015-0.076-0.013-0.121c-0.027-0.044-0.059-0.068-0.096-0.068h-13.422c-0.63,0-1.277,0.027-1.941,0.082
		c-0.035,0-0.08,0-0.133,0c-0.362,0-0.687-0.126-0.972-0.378c-0.306-0.287-0.459-0.637-0.459-1.051v-1.429
		c0-0.431,0.153-0.78,0.459-1.05c0.269-0.233,0.583-0.351,0.943-0.351c0.054,0,0.107,0,0.161,0c0.684,0.072,1.329,0.108,1.941,0.108
		H372.5C373.002,100.288,373.577,100.261,374.225,100.206z M362.417,107.672c0-0.376,0.126-0.7,0.377-0.969
		c0.27-0.324,0.612-0.485,1.025-0.485h1.672c0.448,0,0.825,0.152,1.134,0.457c0.302,0.306,0.456,0.684,0.456,1.132
		c0,0.899-0.016,1.671-0.041,2.318c-0.027,0.647-0.091,1.388-0.189,2.224c-0.099,0.835-0.233,1.568-0.403,2.196
		c-0.173,0.63-0.415,1.312-0.729,2.049c-0.313,0.736-0.688,1.406-1.118,2.007c-0.432,0.604-0.967,1.213-1.604,1.833
		c-0.638,0.62-1.37,1.2-2.196,1.739c-0.359,0.234-0.735,0.351-1.13,0.351c-0.056,0-0.119-0.01-0.19-0.027
		c-0.468-0.036-0.89-0.207-1.267-0.513l-1.429-1.159c-0.233-0.179-0.351-0.405-0.351-0.674c0-0.054,0.009-0.116,0.027-0.188
		c0.054-0.341,0.244-0.593,0.565-0.755c0.557-0.288,1.115-0.647,1.673-1.079c1.473-1.113,2.466-2.332,2.978-3.652
		c0.513-1.321,0.769-3.158,0.769-5.512L362.417,107.672z"/>
	<path fill="#4B8F00" d="M399.641,102.228c0.233-0.018,0.459-0.027,0.675-0.027c0.862,0,1.606,0.188,2.239,0.567l0.698,0.431
		c0.359,0.233,0.602,0.566,0.728,0.998c0.037,0.162,0.055,0.324,0.055,0.485c0,0.27-0.055,0.521-0.163,0.755
		c-0.143,0.306-0.259,0.593-0.349,0.863c-1.151,3.54-2.741,6.559-4.771,9.056c-1.24,1.527-2.639,2.885-4.205,4.07
		c-1.562,1.186-3.415,2.265-5.553,3.234c-0.306,0.144-0.628,0.216-0.97,0.216c-0.126,0-0.261-0.01-0.405-0.027
		c-0.484-0.072-0.907-0.269-1.267-0.593l-1.59-1.428c-0.216-0.179-0.323-0.396-0.323-0.647c0-0.072,0.011-0.143,0.025-0.216
		c0.072-0.341,0.28-0.575,0.62-0.701c2.282-0.79,4.16-1.693,5.633-2.708c1.474-1.016,2.812-2.206,4.016-3.572
		c0.81-0.898,1.555-1.999,2.237-3.301c0.683-1.302,1.141-2.439,1.375-3.41c0.034-0.125-0.02-0.188-0.163-0.188h-6.468
		c-0.126,0-0.233,0.055-0.324,0.162c-1.688,2.084-3.54,3.917-5.553,5.499c-0.376,0.269-0.797,0.404-1.267,0.404
		c-0.468,0-0.899-0.144-1.294-0.432l-1.186-0.89c-0.306-0.216-0.458-0.503-0.458-0.862c0-0.395,0.171-0.709,0.513-0.942
		c0.933-0.647,1.792-1.325,2.574-2.036c0.78-0.709,1.469-1.424,2.062-2.143c0.594-0.719,1.068-1.329,1.429-1.833
		c0.358-0.502,0.754-1.087,1.186-1.752c0.306-0.467,0.611-1.069,0.918-1.805c0.179-0.414,0.46-0.71,0.835-0.89
		c0.233-0.126,0.477-0.188,0.729-0.188c0.163,0,0.323,0.026,0.484,0.081l1.86,0.619c0.377,0.126,0.629,0.378,0.755,0.755
		c0.055,0.145,0.08,0.279,0.08,0.405c0,0.233-0.062,0.45-0.188,0.647c-0.216,0.359-0.467,0.772-0.754,1.239
		c-0.02,0.036-0.016,0.077,0.013,0.122c0.026,0.046,0.059,0.067,0.095,0.067h4.26C398.841,102.309,399.228,102.282,399.641,102.228z
		"/>
	<path fill="#4B8F00" d="M426.837,114.007c-0.305,0.34-0.69,0.547-1.158,0.619c-0.108,0.018-0.208,0.026-0.296,0.026
		c-0.361,0-0.701-0.098-1.024-0.295l-0.917-0.54c-0.341-0.197-0.531-0.494-0.566-0.89c-0.019-0.054-0.026-0.108-0.026-0.162
		c0-0.34,0.116-0.629,0.35-0.862c1.186-1.257,2.148-2.515,2.884-3.773c0.019-0.036,0.019-0.067,0-0.095
		c-0.018-0.028-0.054-0.041-0.106-0.041c-0.324,0.072-0.827,0.175-1.511,0.31c-0.683,0.135-1.562,0.31-2.641,0.526
		c-1.079,0.216-2.013,0.396-2.803,0.539c-0.142,0.036-0.217,0.117-0.217,0.243v6.604c0,0.594,0.074,1.029,0.217,1.308
		s0.444,0.498,0.903,0.659c0.456,0.162,1.162,0.243,2.116,0.243c2.137,0,4.545-0.224,7.222-0.673
		c0.072-0.018,0.152-0.026,0.242-0.026c0.306,0,0.574,0.099,0.809,0.296c0.324,0.27,0.477,0.612,0.462,1.024l-0.057,1.347
		c0,0.45-0.157,0.845-0.473,1.187c-0.314,0.34-0.695,0.538-1.145,0.593c-2.57,0.27-4.88,0.404-6.929,0.404
		c-1.384,0-2.543-0.067-3.477-0.202c-0.934-0.136-1.688-0.323-2.265-0.566c-0.574-0.243-1.015-0.593-1.32-1.051
		c-0.304-0.458-0.508-0.938-0.607-1.443c-0.099-0.502-0.147-1.14-0.147-1.913v-6.874c0-0.126-0.063-0.179-0.188-0.162
		c-1.725,0.36-2.975,0.62-3.747,0.781c-0.107,0.019-0.215,0.026-0.323,0.026c-0.306,0-0.584-0.081-0.836-0.242
		c-0.377-0.252-0.603-0.583-0.673-0.998l-0.217-1.24c-0.018-0.108-0.027-0.207-0.027-0.296c0-0.305,0.091-0.594,0.27-0.862
		c0.27-0.359,0.611-0.575,1.024-0.648c1.241-0.178,2.749-0.431,4.528-0.754c0.125-0.019,0.188-0.099,0.188-0.243v-3.261
		l-0.082-2.076c0-0.377,0.127-0.709,0.377-0.998c0.287-0.305,0.639-0.458,1.052-0.458h1.806c0.414,0,0.754,0.153,1.023,0.458
		c0.253,0.288,0.378,0.612,0.378,0.97c0,0.054,0,0.099,0,0.134c-0.072,0.773-0.108,1.429-0.108,1.968v2.453
		c0,0.126,0.074,0.179,0.216,0.161c3.721-0.7,6.389-1.239,8.005-1.616c0.342-0.09,0.594-0.153,0.755-0.189
		c0.378-0.107,0.729-0.162,1.052-0.162c0.646,0,1.212,0.188,1.698,0.566l0.728,0.567c0.341,0.27,0.557,0.63,0.646,1.079
		c0.019,0.126,0.027,0.243,0.027,0.35c0,0.325-0.089,0.63-0.27,0.917c-0.071,0.126-0.135,0.243-0.188,0.35
		c-0.503,0.97-1.195,2.12-2.076,3.45C428.517,111.887,427.663,113.037,426.837,114.007z"/>
	<path fill="#4B8F00" d="M453.791,100.584c0.232-0.018,0.449-0.027,0.647-0.027c0.862,0,1.599,0.224,2.21,0.673l0.161,0.136
		c0.359,0.251,0.583,0.603,0.675,1.05c0.018,0.126,0.025,0.252,0.025,0.377c0,0.306-0.081,0.593-0.242,0.862
		c-0.126,0.252-0.233,0.467-0.323,0.647c-1.132,2.57-2.48,4.951-4.044,7.142c-0.069,0.108-0.055,0.208,0.055,0.297
		c2.103,1.833,4.206,3.944,6.307,6.334c0.27,0.305,0.407,0.646,0.407,1.024c0,0.054-0.013,0.099-0.03,0.134
		c-0.018,0.45-0.197,0.818-0.538,1.105l-1.429,1.267c-0.288,0.232-0.603,0.35-0.942,0.35c-0.055,0-0.117-0.009-0.189-0.026
		c-0.414-0.036-0.754-0.225-1.021-0.566c-1.566-2.049-3.399-4.097-5.502-6.146c-0.107-0.09-0.206-0.09-0.296,0
		c-2.677,2.749-5.535,4.969-8.57,6.658c-0.307,0.161-0.63,0.242-0.969,0.242c-0.109,0-0.228-0.009-0.353-0.026
		c-0.468-0.071-0.862-0.279-1.186-0.619l-1.294-1.321c-0.198-0.215-0.296-0.458-0.296-0.728c0-0.071,0.009-0.153,0.027-0.243
		c0.09-0.359,0.305-0.62,0.646-0.782c1.868-0.844,3.683-1.922,5.432-3.234c1.752-1.312,3.212-2.624,4.38-3.935
		c0.862-0.97,1.636-1.999,2.318-3.086c0.683-1.087,1.177-2.071,1.481-2.951c0.019-0.054,0.014-0.099-0.014-0.135
		c-0.028-0.036-0.068-0.054-0.122-0.054h-8.383c-0.502,0-1.149,0.027-1.939,0.081c-0.056,0-0.099,0-0.136,0
		c-0.377,0-0.7-0.126-0.97-0.378c-0.324-0.287-0.485-0.646-0.485-1.077v-1.563c0-0.414,0.161-0.764,0.485-1.051
		c0.29-0.269,0.619-0.404,1-0.404c0.033,0,0.068,0,0.105,0c0.771,0.054,1.419,0.081,1.939,0.081h9.219
		C452.634,100.691,453.215,100.656,453.791,100.584z"/>
</g>
<g>
	<path fill="#333333" d="M192.379,492.54c-2.768,0-5.292-0.801-7.574-2.404c-0.44-0.307-0.682-0.734-0.726-1.283
		c-0.021-0.065-0.033-0.121-0.033-0.164c0-0.484,0.165-0.913,0.494-1.284l0.362-0.428c0.33-0.418,0.769-0.647,1.32-0.693
		c0.063,0,0.141,0,0.229,0c0.439,0,0.856,0.123,1.251,0.362c1.602,1.054,3.205,1.582,4.808,1.582c1.272,0,2.25-0.252,2.932-0.758
		c0.68-0.505,1.021-1.207,1.021-2.108c0-0.812-0.266-1.422-0.792-1.828c-0.527-0.406-1.428-0.883-2.702-1.431
		c-0.11-0.044-0.186-0.077-0.23-0.1l-3.359-1.415c-1.45-0.616-2.651-1.471-3.605-2.569c-0.955-1.097-1.433-2.479-1.433-4.149
		c0-2.063,0.812-3.782,2.437-5.153c1.628-1.373,3.688-2.059,6.191-2.059c2.328,0,4.436,0.647,6.324,1.943
		c0.463,0.307,0.714,0.747,0.757,1.317c0,0.044,0,0.099,0,0.164c0,0.483-0.164,0.912-0.493,1.284l-0.066,0.099
		c-0.329,0.418-0.769,0.66-1.316,0.726c-0.111,0.021-0.221,0.031-0.331,0.031c-0.414,0-0.809-0.109-1.185-0.328
		c-1.142-0.637-2.372-0.955-3.689-0.955c-1.097,0-1.975,0.231-2.631,0.69c-0.662,0.462-0.99,1.109-0.99,1.944
		c0,0.416,0.088,0.78,0.264,1.086c0.175,0.31,0.466,0.593,0.873,0.857c0.406,0.263,0.769,0.473,1.087,0.626
		c0.318,0.155,0.807,0.352,1.465,0.592c0.11,0.046,0.186,0.077,0.231,0.099l3.26,1.383c1.646,0.682,2.897,1.555,3.754,2.619
		c0.855,1.065,1.284,2.453,1.284,4.166c0,2.13-0.829,3.919-2.487,5.367C197.422,491.816,195.189,492.54,192.379,492.54z"/>
	<path fill="#333333" d="M213.39,492.54c-2.767,0-5.289-0.801-7.574-2.404c-0.437-0.307-0.682-0.734-0.723-1.283
		c-0.024-0.065-0.035-0.121-0.035-0.164c0-0.484,0.164-0.913,0.494-1.284l0.363-0.428c0.329-0.418,0.768-0.647,1.316-0.693
		c0.065,0,0.143,0,0.231,0c0.439,0,0.856,0.123,1.251,0.362c1.602,1.054,3.205,1.582,4.808,1.582c1.275,0,2.25-0.252,2.931-0.758
		c0.68-0.505,1.021-1.207,1.021-2.108c0-0.812-0.264-1.422-0.791-1.828c-0.525-0.406-1.427-0.883-2.701-1.431
		c-0.11-0.044-0.187-0.077-0.23-0.1l-3.359-1.415c-1.45-0.616-2.649-1.471-3.606-2.569c-0.955-1.097-1.432-2.479-1.432-4.149
		c0-2.063,0.812-3.782,2.437-5.153c1.625-1.373,3.688-2.059,6.191-2.059c2.327,0,4.435,0.647,6.323,1.943
		c0.46,0.307,0.713,0.747,0.758,1.317c0,0.044,0,0.099,0,0.164c0,0.483-0.165,0.912-0.494,1.284l-0.066,0.099
		c-0.329,0.418-0.769,0.66-1.316,0.726c-0.111,0.021-0.22,0.031-0.33,0.031c-0.417,0-0.812-0.109-1.185-0.328
		c-1.142-0.637-2.372-0.955-3.689-0.955c-1.098,0-1.976,0.231-2.635,0.69c-0.659,0.462-0.987,1.109-0.987,1.944
		c0,0.416,0.088,0.78,0.265,1.086c0.175,0.31,0.465,0.593,0.873,0.857c0.405,0.263,0.769,0.473,1.087,0.626
		c0.317,0.155,0.806,0.352,1.465,0.592c0.11,0.046,0.187,0.077,0.231,0.099l3.26,1.383c1.646,0.682,2.898,1.555,3.754,2.619
		c0.856,1.065,1.285,2.453,1.285,4.166c0,2.13-0.83,3.919-2.487,5.367C218.433,491.816,216.2,492.54,213.39,492.54z"/>
	<path fill="#333333" d="M228.902,492.079c-0.528,0-0.985-0.193-1.368-0.578c-0.385-0.382-0.578-0.839-0.578-1.366V469.06
		c0-0.526,0.193-0.982,0.578-1.366c0.383-0.385,0.84-0.578,1.368-0.578h1.118c0.527,0,0.982,0.193,1.367,0.578
		c0.384,0.384,0.576,0.84,0.576,1.366v18.606c0,0.154,0.078,0.231,0.231,0.231h7.936c0.527,0,0.984,0.192,1.368,0.575
		c0.383,0.385,0.576,0.841,0.576,1.368v0.295c0,0.527-0.193,0.984-0.576,1.367c-0.383,0.384-0.84,0.577-1.368,0.577L228.902,492.079
		L228.902,492.079z"/>
	<path fill="#333333" d="M253.169,476.838c0.441,0,0.822,0.156,1.145,0.467c0.321,0.312,0.482,0.701,0.482,1.159v7.197
		c0,0.147,0.028,0.275,0.083,0.387c0.479,0.809,1.139,1.402,1.986,1.779c0.846,0.376,1.921,0.592,3.226,0.647
		c1.102,0.056,2.481,0.081,4.136,0.081c0.607,0,1.25-0.008,1.93-0.025c2.537-0.018,4.825-0.093,6.866-0.221c0.018,0,0.046,0,0.083,0
		c0.331,0,0.596,0.137,0.799,0.413c0.128,0.184,0.192,0.388,0.192,0.606c0,0.111-0.018,0.23-0.055,0.359
		c-0.11,0.294-0.203,0.596-0.275,0.909c-0.147,0.458-0.404,0.841-0.772,1.145c-0.367,0.304-0.782,0.463-1.241,0.482
		c-2.279,0.091-4.422,0.138-6.425,0.138c-1.893,0-3.659-0.037-5.294-0.111c-1.619-0.072-2.964-0.327-4.038-0.758
		c-1.077-0.432-2.011-1.135-2.801-2.108c-0.091-0.11-0.184-0.12-0.276-0.028c-0.882,0.754-1.746,1.463-2.591,2.122
		c-0.239,0.184-0.496,0.276-0.773,0.276c-0.11,0-0.22-0.009-0.329-0.027c-0.406-0.109-0.7-0.358-0.884-0.744l-0.496-1.131
		c-0.112-0.238-0.167-0.477-0.167-0.717c0-0.183,0.027-0.368,0.083-0.552c0.146-0.44,0.413-0.779,0.799-1.021
		c0.809-0.459,1.517-0.899,2.124-1.321c0.11-0.075,0.165-0.185,0.165-0.333v-5.102c0-0.127-0.065-0.193-0.193-0.193h-1.489
		c-0.46,0-0.845-0.16-1.158-0.483c-0.311-0.32-0.469-0.702-0.469-1.145v-0.523c0-0.458,0.159-0.846,0.469-1.159
		c0.312-0.311,0.698-0.467,1.158-0.467L253.169,476.838L253.169,476.838z M254.631,469.558c0.311,0.294,0.468,0.651,0.468,1.075
		c0,0.479-0.175,0.892-0.524,1.241l-0.716,0.688c-0.275,0.276-0.608,0.414-0.994,0.414c-0.037,0-0.074,0-0.11,0
		c-0.424-0.037-0.791-0.21-1.103-0.524c-0.682-0.734-1.508-1.507-2.483-2.315c-0.349-0.294-0.523-0.672-0.523-1.131
		c0-0.385,0.146-0.715,0.441-0.992l0.44-0.441c0.35-0.312,0.763-0.486,1.241-0.523c0.056-0.019,0.112-0.029,0.167-0.029
		c0.403,0,0.781,0.131,1.13,0.386C253.058,468.159,253.914,468.878,254.631,469.558z M260.944,483.648
		c-0.129,0-0.193,0.064-0.193,0.193v2.15c0,0.44-0.161,0.823-0.482,1.144c-0.322,0.322-0.703,0.483-1.145,0.483h-0.579
		c-0.46,0-0.845-0.161-1.158-0.483c-0.31-0.32-0.468-0.703-0.468-1.144V474.63c0-0.459,0.158-0.844,0.468-1.157
		c0.312-0.314,0.698-0.471,1.158-0.471h3.447c0.018,0,0.027-0.013,0.027-0.039c0-0.028-0.01-0.051-0.027-0.07
		c-0.386-0.166-0.754-0.32-1.101-0.468c-0.333-0.147-0.526-0.395-0.582-0.745c-0.019-0.074-0.027-0.139-0.027-0.194
		c0-0.274,0.119-0.514,0.358-0.716l1.078-0.854c0.016-0.038,0.02-0.07,0.012-0.098c-0.01-0.028-0.031-0.042-0.068-0.042h-2.841
		c-0.424,0-0.781-0.151-1.075-0.454c-0.295-0.304-0.442-0.663-0.442-1.076c0-0.414,0.147-0.771,0.442-1.075
		c0.293-0.302,0.651-0.455,1.075-0.455h10.919c0.074,0,0.138-0.009,0.193-0.028c0.128-0.018,0.257-0.026,0.386-0.026
		c0.312,0,0.606,0.111,0.883,0.332l0.634,0.495c0.332,0.275,0.498,0.625,0.498,1.048c0,0.387-0.149,0.708-0.443,0.965
		c-1.103,0.957-2.243,1.839-3.418,2.648c-0.038,0.018-0.051,0.051-0.042,0.095c0.009,0.047,0.031,0.08,0.069,0.098
		c0.404,0.185,0.772,0.368,1.103,0.552c0.128,0.074,0.257,0.109,0.386,0.109h1.517c0.459,0,0.845,0.156,1.158,0.471
		c0.313,0.312,0.469,0.698,0.469,1.157v9.597c0,0.827-0.088,1.457-0.263,1.889c-0.175,0.433-0.511,0.785-1.006,1.062
		c-0.514,0.275-1.241,0.449-2.178,0.525c-0.038,0-0.074,0-0.111,0c-0.423,0-0.8-0.14-1.13-0.414
		c-0.368-0.295-0.617-0.672-0.745-1.132c-0.018-0.035-0.028-0.072-0.028-0.11c-0.054-0.129-0.082-0.247-0.082-0.358
		c0-0.238,0.073-0.46,0.221-0.663c0.22-0.311,0.514-0.467,0.882-0.467c0.074,0,0.128,0,0.166,0c0.146,0,0.248-0.027,0.303-0.083
		c0.055-0.055,0.083-0.154,0.083-0.303v-0.33c0-0.13-0.065-0.194-0.194-0.194h-2.041c-0.146,0-0.221,0.064-0.221,0.194v2.039
		c0,0.44-0.161,0.822-0.481,1.145c-0.322,0.321-0.704,0.483-1.146,0.483h-0.386c-0.46,0-0.846-0.162-1.158-0.483
		c-0.312-0.322-0.47-0.704-0.47-1.145v-2.039c0-0.13-0.072-0.194-0.22-0.194L260.944,483.648L260.944,483.648z M263.15,476.093
		c0-0.129-0.073-0.192-0.22-0.192h-1.985c-0.129,0-0.193,0.063-0.193,0.192v0.581c0,0.146,0.064,0.22,0.193,0.22h1.985
		c0.147,0,0.22-0.074,0.22-0.22V476.093z M260.751,480.533c0,0.127,0.064,0.191,0.193,0.191h1.985c0.147,0,0.22-0.064,0.22-0.191
		v-0.635c0-0.146-0.073-0.222-0.22-0.222h-1.985c-0.129,0-0.193,0.075-0.193,0.222V480.533z M266.267,469.888
		c0.018-0.018,0.023-0.041,0.015-0.068c-0.01-0.028-0.033-0.042-0.07-0.042h-3.666c-0.02,0-0.034,0.01-0.043,0.029
		c-0.009,0.017-0.005,0.025,0.014,0.025c0.515,0.186,1.288,0.479,2.317,0.882c0.128,0.056,0.247,0.047,0.358-0.026
		C265.578,470.413,265.935,470.146,266.267,469.888z M269.246,476.093c0-0.129-0.066-0.192-0.195-0.192h-2.04
		c-0.146,0-0.221,0.063-0.221,0.192v0.581c0,0.146,0.074,0.22,0.221,0.22h2.04c0.129,0,0.195-0.074,0.195-0.22V476.093z
		 M266.79,480.533c0,0.127,0.074,0.191,0.221,0.191h2.04c0.129,0,0.195-0.064,0.195-0.191v-0.635c0-0.146-0.066-0.222-0.195-0.222
		h-2.04c-0.146,0-0.221,0.075-0.221,0.222V480.533z"/>
	<path fill="#333333" d="M281.213,467.461c0.202-0.422,0.506-0.726,0.912-0.909c0.236-0.11,0.478-0.165,0.715-0.165
		c0.183,0,0.367,0.027,0.552,0.082l0.718,0.22c0.422,0.147,0.726,0.415,0.91,0.801c0.09,0.202,0.137,0.403,0.137,0.607
		c0,0.202-0.047,0.405-0.137,0.605c-0.571,1.25-1.159,2.445-1.766,3.585c-0.074,0.11-0.111,0.239-0.111,0.387v18.336
		c0,0.46-0.158,0.846-0.482,1.16c-0.322,0.311-0.702,0.467-1.145,0.467h-0.634c-0.46,0-0.845-0.156-1.159-0.467
		c-0.312-0.313-0.468-0.7-0.468-1.16v-12.463c0-0.037-0.019-0.064-0.053-0.083c-0.04-0.018-0.067-0.009-0.085,0.027
		c-0.221,0.258-0.451,0.525-0.688,0.8c-0.203,0.221-0.441,0.331-0.718,0.331c-0.074,0-0.146-0.01-0.22-0.026
		c-0.368-0.075-0.634-0.286-0.8-0.634c-0.203-0.46-0.423-0.901-0.661-1.323c-0.165-0.333-0.249-0.682-0.249-1.05
		c0-0.11,0.01-0.21,0.027-0.302c0.057-0.479,0.239-0.894,0.552-1.241C278.308,472.876,279.926,470.349,281.213,467.461z
		 M284.551,472.618c0-0.459,0.16-0.846,0.482-1.158c0.319-0.312,0.703-0.469,1.144-0.469h14.808c0.46,0,0.846,0.156,1.159,0.469
		c0.312,0.312,0.468,0.699,0.468,1.158v0.028c0,0.441-0.156,0.822-0.468,1.144c-0.312,0.322-0.699,0.483-1.159,0.483h-14.808
		c-0.44,0-0.824-0.161-1.144-0.483c-0.322-0.321-0.482-0.702-0.482-1.144V472.618z M287.859,492.692
		c-0.458,0-0.846-0.156-1.157-0.469c-0.314-0.312-0.471-0.698-0.471-1.158v-6.04c0-0.44,0.156-0.822,0.471-1.144
		c0.311-0.321,0.699-0.481,1.157-0.481h11.748c0.458,0,0.842,0.16,1.156,0.481c0.313,0.321,0.469,0.703,0.469,1.144v5.958
		c0,0.459-0.155,0.845-0.469,1.158c-0.312,0.312-0.698,0.469-1.156,0.469h-1.711c-0.221,0-0.41-0.08-0.564-0.234
		c-0.157-0.156-0.234-0.346-0.234-0.565c0-0.074-0.038-0.112-0.112-0.112h-6.728c-0.073,0-0.109,0.038-0.109,0.112
		c0,0.257-0.088,0.469-0.263,0.635c-0.176,0.165-0.382,0.247-0.622,0.247H287.859L287.859,492.692z M299.191,475.182
		c0.423,0,0.79,0.156,1.104,0.469c0.311,0.313,0.467,0.686,0.467,1.118c0,0.432-0.156,0.804-0.467,1.116
		c-0.313,0.312-0.682,0.469-1.104,0.469h-10.865c-0.422,0-0.789-0.156-1.102-0.469s-0.469-0.685-0.469-1.116
		c0-0.433,0.156-0.805,0.469-1.118c0.312-0.312,0.68-0.469,1.102-0.469H299.191z M288.326,482.463c-0.422,0-0.789-0.156-1.102-0.469
		s-0.469-0.689-0.469-1.131c0-0.44,0.156-0.812,0.469-1.118c0.312-0.301,0.68-0.454,1.102-0.454h10.699
		c0.442,0,0.817,0.152,1.13,0.454c0.312,0.305,0.47,0.678,0.47,1.118c0,0.441-0.157,0.818-0.47,1.131s-0.688,0.469-1.13,0.469
		H288.326z M298.667,466.883c0.441,0,0.813,0.155,1.118,0.468c0.302,0.312,0.455,0.685,0.455,1.116c0,0.434-0.152,0.807-0.455,1.117
		c-0.304,0.312-0.677,0.469-1.118,0.469h-9.815c-0.44,0-0.817-0.157-1.13-0.469c-0.313-0.311-0.469-0.684-0.469-1.117
		c0-0.432,0.155-0.804,0.469-1.116c0.312-0.312,0.689-0.468,1.13-0.468H298.667z M297.098,486.764c0-0.146-0.076-0.221-0.223-0.221
		h-6.534c-0.129,0-0.192,0.075-0.192,0.221v1.545c0,0.146,0.063,0.221,0.192,0.221h6.534c0.146,0,0.223-0.074,0.223-0.221V486.764z"
		/>
	<path fill="#333333" d="M307.492,475.147c-0.119,0.019-0.226,0.028-0.323,0.028c-0.335,0-0.639-0.106-0.913-0.322
		c-0.372-0.274-0.577-0.646-0.617-1.117l-0.147-1.44c0-0.059,0-0.118,0-0.176c0-0.393,0.137-0.746,0.411-1.061
		c0.316-0.354,0.706-0.539,1.177-0.558c0.606-0.019,1.049-0.05,1.322-0.089c0.257-0.02,1.906-0.155,4.953-0.411
		c3.049-0.255,5.651-0.481,7.811-0.678c1.997-0.155,4.309-0.303,6.936-0.439c0.039,0,0.068,0,0.088,0
		c0.451,0,0.833,0.157,1.146,0.47c0.333,0.334,0.51,0.735,0.529,1.205v1.177c0,0.469-0.167,0.876-0.498,1.219
		c-0.335,0.344-0.745,0.524-1.237,0.544c-1.765,0.04-3.086,0.147-3.97,0.323c-1.626,0.354-3.032,1.294-4.216,2.823
		c-1.189,1.528-1.781,3.165-1.781,4.909c0,1.843,0.677,3.27,2.028,4.278c1.353,1.011,3.195,1.671,5.527,1.983
		c0.431,0.059,0.767,0.265,1,0.619c0.157,0.234,0.235,0.479,0.235,0.734c0,0.136-0.027,0.284-0.088,0.44l-0.56,1.734
		c-0.177,0.49-0.469,0.872-0.882,1.147c-0.333,0.217-0.687,0.323-1.058,0.323c-0.118,0-0.235-0.011-0.354-0.03
		c-1.999-0.333-3.784-0.926-5.352-1.779c-1.567-0.852-2.836-2.013-3.807-3.483c-0.97-1.471-1.455-3.136-1.455-4.998
		c0-1.804,0.361-3.456,1.088-4.953c0.726-1.5,1.567-2.702,2.528-3.604c0.019-0.02,0.019-0.049,0-0.088
		c-0.02-0.039-0.04-0.05-0.06-0.03C313.155,474.245,310,474.678,307.492,475.147z M323.868,478.234
		c-0.118-0.217-0.178-0.43-0.178-0.646c0-0.118,0.02-0.234,0.06-0.354c0.097-0.353,0.312-0.598,0.646-0.735
		c0.216-0.097,0.432-0.146,0.647-0.146c0.176,0,0.354,0.028,0.528,0.086c0.392,0.118,0.694,0.354,0.913,0.705
		c0.312,0.511,0.616,1.03,0.91,1.559c0.098,0.197,0.146,0.401,0.146,0.619c0,0.156-0.02,0.312-0.058,0.47
		c-0.139,0.372-0.393,0.637-0.765,0.795c-0.196,0.078-0.392,0.117-0.589,0.117c-0.177,0-0.353-0.029-0.528-0.088
		c-0.391-0.157-0.676-0.411-0.853-0.764C324.455,479.244,324.163,478.705,323.868,478.234z M327.337,476.853
		c-0.137-0.216-0.205-0.44-0.205-0.675c0-0.099,0.019-0.207,0.059-0.324c0.097-0.353,0.313-0.607,0.646-0.764
		c0.216-0.099,0.44-0.148,0.676-0.148c0.157,0,0.314,0.021,0.47,0.059c0.393,0.119,0.706,0.344,0.941,0.677
		c0.333,0.49,0.647,0.98,0.94,1.471c0.137,0.234,0.206,0.46,0.206,0.675c0,0.139-0.02,0.276-0.06,0.413
		c-0.117,0.373-0.353,0.646-0.704,0.822c-0.217,0.1-0.431,0.148-0.647,0.148c-0.176,0-0.344-0.03-0.499-0.088
		c-0.393-0.118-0.688-0.362-0.883-0.733C327.984,477.852,327.673,477.344,327.337,476.853z"/>
	<path fill="#333333" d="M361.131,478.898c0,0.455-0.165,0.85-0.499,1.182c-0.332,0.333-0.727,0.5-1.182,0.5h-2.735
		c-0.133,0-0.216,0.065-0.256,0.198c-0.76,2.278-1.775,4.215-3.047,5.811c-0.097,0.115-0.077,0.199,0.056,0.256
		c1.994,0.817,3.703,1.605,5.128,2.364c0.379,0.19,0.599,0.494,0.654,0.912c0,0.076,0,0.143,0,0.199c0,0.342-0.123,0.635-0.37,0.883
		l-1.084,1.081c-0.341,0.343-0.758,0.532-1.252,0.57c-0.096,0.018-0.18,0.029-0.257,0.029c-0.398,0-0.77-0.104-1.11-0.312
		c-1.367-0.798-3.114-1.672-5.24-2.62c-0.134-0.057-0.257-0.049-0.371,0.027c-2.431,1.519-5.744,2.631-9.94,3.333
		c-0.114,0.019-0.238,0.029-0.37,0.029c-0.343,0-0.674-0.087-0.998-0.257c-0.438-0.229-0.788-0.561-1.053-0.997
		c-0.191-0.344-0.4-0.684-0.627-1.026c-0.115-0.171-0.173-0.351-0.173-0.54c0-0.133,0.039-0.276,0.116-0.429
		c0.132-0.323,0.379-0.504,0.739-0.542c3-0.322,5.46-0.863,7.378-1.622c0.037,0,0.057-0.021,0.057-0.057
		c0-0.039-0.02-0.068-0.057-0.087c-0.951-0.36-1.691-0.627-2.223-0.798c-0.076-0.018-0.123,0-0.142,0.058
		c-0.116,0.189-0.28,0.332-0.499,0.427s-0.433,0.104-0.641,0.029l-2.136-0.542c-0.399-0.114-0.674-0.371-0.827-0.769
		c-0.076-0.152-0.115-0.313-0.115-0.484c0-0.21,0.058-0.418,0.172-0.627c0.816-1.405,1.625-2.85,2.422-4.329
		c0.018-0.039,0.014-0.076-0.016-0.114c-0.027-0.039-0.07-0.057-0.125-0.057h-3.848c-0.454,0-0.848-0.167-1.183-0.499
		c-0.333-0.333-0.498-0.727-0.498-1.183v-0.654c0-0.457,0.165-0.851,0.498-1.184c0.335-0.331,0.729-0.499,1.183-0.499h5.895
		c0.153,0,0.258-0.057,0.317-0.171l1.106-2.392c0.21-0.456,0.533-0.788,0.969-0.997c0.303-0.171,0.616-0.257,0.94-0.257
		c0.136,0,0.276,0.02,0.428,0.056l1.196,0.258c0.417,0.076,0.722,0.304,0.91,0.684c0.115,0.209,0.171,0.408,0.171,0.598
		c0,0.19-0.047,0.381-0.142,0.57c-0.172,0.36-0.408,0.854-0.712,1.48c-0.02,0.039-0.014,0.078,0.016,0.114
		c0.027,0.039,0.06,0.057,0.099,0.057h11.593c0.455,0,0.85,0.168,1.182,0.499c0.334,0.333,0.499,0.727,0.499,1.184v0.656H361.131z
		 M339.995,472.119c-0.151,0-0.228,0.065-0.228,0.199v1.454c0,0.475-0.161,0.872-0.484,1.196c-0.323,0.322-0.723,0.483-1.196,0.483
		h-0.939c-0.476,0-0.872-0.161-1.197-0.483c-0.323-0.323-0.484-0.722-0.484-1.196v-3.902c0-0.456,0.161-0.851,0.484-1.183
		c0.324-0.333,0.722-0.499,1.197-0.499h8.316c0.135,0,0.201-0.066,0.201-0.199v-0.484c0-0.455,0.165-0.849,0.498-1.182
		c0.332-0.332,0.727-0.499,1.182-0.499h1.197c0.456,0,0.85,0.167,1.183,0.499c0.33,0.333,0.497,0.727,0.497,1.182v0.484
		c0,0.133,0.067,0.199,0.2,0.199h8.602c0.476,0,0.873,0.166,1.197,0.499c0.324,0.332,0.484,0.727,0.484,1.183v3.902
		c0,0.475-0.161,0.872-0.484,1.196c-0.323,0.323-0.722,0.483-1.197,0.483h-1.167c-0.475,0-0.873-0.161-1.196-0.483
		c-0.323-0.323-0.485-0.722-0.485-1.196v-1.454c0-0.134-0.076-0.199-0.228-0.199H339.995z M351.531,480.778
		c0.019-0.058,0.011-0.104-0.028-0.143c-0.04-0.039-0.086-0.056-0.144-0.056h-5.439c-0.153,0-0.255,0.056-0.312,0.171
		c-0.361,0.682-0.817,1.537-1.368,2.562c-0.057,0.134-0.018,0.219,0.114,0.256c1.386,0.417,2.896,0.923,4.53,1.511
		c0.132,0.039,0.247,0.009,0.342-0.087C350.268,483.816,351.037,482.412,351.531,480.778z"/>
	<path fill="#333333" d="M379.561,486.361c-0.133,0-0.201,0.076-0.201,0.228v2.365c0,0.151,0.068,0.227,0.201,0.227h8.546
		c0.475,0,0.872,0.162,1.195,0.484c0.323,0.321,0.484,0.723,0.484,1.196v0.398c0,0.456-0.161,0.851-0.484,1.183
		c-0.322,0.332-0.721,0.499-1.195,0.499h-21.592c-0.475,0-0.873-0.167-1.195-0.499c-0.325-0.332-0.484-0.727-0.484-1.183v-0.398
		c0-0.474,0.16-0.874,0.484-1.196c0.322-0.322,0.721-0.484,1.195-0.484h8.146c0.134,0,0.199-0.075,0.199-0.227v-2.365
		c0-0.151-0.065-0.228-0.199-0.228h-5.811c-0.476,0-0.873-0.161-1.195-0.484c-0.324-0.323-0.484-0.723-0.484-1.195v-0.286
		c0-0.455,0.16-0.849,0.484-1.182c0.32-0.332,0.72-0.498,1.195-0.498h5.811c0.134,0,0.199-0.066,0.199-0.2v-2.279
		c0-0.151-0.065-0.227-0.199-0.227h-4.243c-0.454,0-0.851-0.162-1.183-0.484c-0.332-0.323-0.499-0.722-0.499-1.197v-0.484
		c0-0.057-0.019-0.095-0.055-0.114c-0.04-0.018-0.079-0.018-0.116,0c-0.493,0.323-0.986,0.639-1.48,0.94
		c-0.284,0.152-0.57,0.228-0.854,0.228c-0.152,0-0.295-0.019-0.428-0.058c-0.456-0.112-0.828-0.359-1.111-0.739
		c-0.209-0.284-0.418-0.56-0.627-0.827c-0.209-0.244-0.312-0.521-0.312-0.826c0-0.094,0.009-0.18,0.028-0.255
		c0.057-0.418,0.266-0.73,0.626-0.94c1.842-1.025,3.59-2.269,5.242-3.731c1.651-1.461,3.018-2.935,4.101-4.415
		c0.684-0.931,1.558-1.396,2.621-1.396h1.081c1.065,0,1.957,0.456,2.678,1.366c2.754,3.496,6.049,6.145,9.884,7.949
		c0.361,0.17,0.589,0.454,0.685,0.853c0.018,0.115,0.027,0.218,0.027,0.314c0,0.284-0.095,0.54-0.283,0.769
		c-0.267,0.341-0.532,0.721-0.799,1.14c-0.266,0.399-0.627,0.654-1.082,0.769c-0.134,0.039-0.275,0.057-0.427,0.057
		c-0.285,0-0.571-0.076-0.855-0.228c-0.473-0.284-0.949-0.588-1.423-0.911c-0.039-0.019-0.078-0.019-0.115,0
		c-0.04,0.019-0.057,0.057-0.057,0.113v0.429c0,0.476-0.167,0.873-0.5,1.196c-0.331,0.323-0.726,0.484-1.181,0.484h-4.444
		c-0.133,0-0.2,0.076-0.2,0.229v2.278c0,0.134,0.067,0.2,0.2,0.2h5.896c0.475,0,0.873,0.166,1.197,0.498
		c0.321,0.333,0.483,0.726,0.483,1.182v0.285c0,0.474-0.162,0.872-0.483,1.196c-0.323,0.323-0.723,0.484-1.197,0.484
		L379.561,486.361L379.561,486.361z M370.759,476.193c-0.039,0.019-0.052,0.042-0.041,0.07c0.008,0.027,0.03,0.043,0.069,0.043
		h12.76c0.042,0,0.062-0.016,0.074-0.043c0.007-0.028-0.007-0.051-0.046-0.07c-2.734-2.071-4.86-4.121-6.38-6.153
		c-0.019-0.039-0.057-0.058-0.114-0.058s-0.104,0.019-0.143,0.058C375.383,472.185,373.321,474.236,370.759,476.193z"/>
</g>
<g>
	<path fill="#4B8F00" d="M149.049,468.44c0-2.378,1.94-4.314,4.313-4.314c2.376,0,4.313,1.942,4.313,4.314v4.312h4.187v-4.312
		c0-4.703-3.827-8.499-8.5-8.499c-4.67,0-8.502,3.801-8.502,8.499v4.312h4.189V468.44L149.049,468.44z"/>
	<path fill="#4B8F00" d="M162.983,474.156h-19.235c-1.27,0-2.301,1.035-2.301,2.3v13.722c0,1.271,1.04,2.299,2.301,2.299h19.251
		c1.269,0,2.301-1.037,2.301-2.299v-13.722C165.305,475.182,164.269,474.156,162.983,474.156L162.983,474.156z M155.25,487.416
		h-3.774l0.752-4.011c-0.646-0.386-1.108-1.11-1.108-1.911c0-1.241,1.007-2.248,2.244-2.248c1.24,0,2.246,1.008,2.246,2.248
		c0,0.824-0.436,1.521-1.109,1.911L155.25,487.416z"/>
</g>
<path fill="none" stroke="#4B8F00" stroke-width="2.1718" stroke-miterlimit="10" d="M143.884,75.707
	c0,0,24.899-48.374,62.594-24.72c37.692,23.655-0.83,71.394-2.558,73.904c-1.738,2.516-20.603,23.365-47.442,5.461
	C156.478,130.352,123.193,110.637,143.884,75.707z"/>
<path fill="#4B8F00" stroke="#4B8F00" stroke-width="1.6578" stroke-miterlimit="10" d="M214.738,44.163
	c-3.928-4.904-3.968-12.744-3.968-12.744l-3.698,4.737l-2-11.062c0,0-5.963,6.577-12.07,9.086
	c-6.104,2.507-18.719,7.021-24.323,15.609c0,0,27.182,12.883,41.195,13.226c0,0,4.931,13.161,13.315,18.948
	C223.189,81.964,229.864,63.027,214.738,44.163z"/>
<path fill="none" stroke="#4B8F00" stroke-width="2.1718" stroke-linecap="round" stroke-miterlimit="10" d="M182.291,92.615
	c-1.41,10.876-0.369,17.372-9.137,12.75"/>
<path fill="#4B8F00" stroke="#4B8F00" stroke-width="0.9932" stroke-miterlimit="10" d="M169.339,83.8c0,0-0.701-7.188,4.713-4.95
	C179.468,81.086,173.645,88.267,169.339,83.8z"/>
<path fill="#4B8F00" stroke="#4B8F00" stroke-width="0.9932" stroke-miterlimit="10" d="M191.517,93.167
	c0,0-0.697-7.182,4.713-4.951C201.642,90.453,195.823,97.634,191.517,93.167z"/>
<path fill="none" stroke="#4B8F00" stroke-width="2.1718" stroke-miterlimit="10" d="M153.141,60.495c0,0-7.714-7.456-13.718,4.886
	c0,0-5.05,8.739,3.69,11.31"/>
<path fill="none" stroke="#4B8F00" stroke-width="2.1718" stroke-miterlimit="10" d="M221.279,91.261c0,0,9.497,1.111,4.099,11.652
	c0,0-3.627,9.023-10.282,6.169"/>
<path fill="none" stroke="#4B8F00" stroke-width="2.1718" stroke-linecap="round" stroke-miterlimit="10" d="M169.695,67.531
	c0,0,3.567-4.754,10.256-0.435"/>
<path fill="none" stroke="#4B8F00" stroke-width="2.1718" stroke-linecap="round" stroke-miterlimit="10" d="M200.919,77.472
	c0,0,8.029,0.433,6.69,8.211"/>
<path fill="none" stroke="#4B8F00" stroke-width="2.1718" stroke-miterlimit="10" d="M185.75,115.359c0,0-10.254,1.73-19.181-6.05
	C166.569,109.31,167.462,130.915,185.75,115.359z"/>
<polyline fill="none" stroke="#4B8F00" stroke-width="2.1718" stroke-linecap="round" stroke-linejoin="round" stroke-miterlimit="10" points="
	143.285,119.966 91.954,157.671 81.073,114.902 65.913,115.408 81.073,171.629 90.482,174.162 126.037,152.889 86.303,210.049 "/>
<line fill="none" stroke="#4B8F00" stroke-width="2.1718" stroke-linecap="round" stroke-linejoin="round" stroke-miterlimit="10" x1="171.648" y1="170.269" x2="154.682" y2="208.573"/>
<polyline fill="none" stroke="#4B8F00" stroke-width="1.9924" stroke-linecap="round" stroke-linejoin="round" stroke-miterlimit="10" points="
	163.935,135.049 162.397,146.104 181.932,145.588 182.493,137.693 186.044,187.235 226.931,153.903 236.342,165.682 
	180.402,209.293 173.606,209.293 171.516,169.228 "/>
<polyline fill="none" stroke="#4B8F00" stroke-width="2.1718" stroke-linecap="round" stroke-linejoin="round" stroke-miterlimit="10" points="
	140.148,122.496 151.083,141.478 162.908,134.534 "/>
<path fill="none" stroke="#4B8F00" stroke-width="2.1718" stroke-linejoin="round" stroke-miterlimit="10" d="M229.022,155.928
	l6.274-13.169c0,0,4.18-5.069,4.701,0.504l-1.042,8.613l16.206-3.039l13.067-1.016c0,0,5.753,2.532,0,4.559l-14.11,4.051
	l-17.774,9.626"/>
<g>
	<path fill="#4B8F00" stroke="#4B8F00" stroke-width="0.6001" stroke-miterlimit="10" d="M69.244,63.981l-19.826,2.866
		c-1.907,0.276-3.232,2.008-2.949,3.857l6.011,39.036c0.285,1.848,2.073,3.134,3.981,2.856l19.823-2.864
		c1.916-0.278,3.235-2.01,2.952-3.861l-6.007-39.03C72.943,64.99,71.165,63.706,69.244,63.981L69.244,63.981z M48.471,73.217
		l23.607-3.411l4.46,28.98l-23.607,3.407L48.471,73.217z M49.653,68.372l19.825-2.863c1.046-0.151,2.025,0.548,2.178,1.556
		l0.187,1.22l-23.606,3.408l-0.189-1.214C47.893,69.467,48.612,68.523,49.653,68.372L49.653,68.372z M76.055,108.202l-19.828,2.866
		c-1.043,0.151-2.011-0.548-2.164-1.558l-0.901-5.793l23.612-3.408l0.89,5.792C77.823,107.111,77.1,108.053,76.055,108.202
		L76.055,108.202z"/>
	<path fill="#4B8F00" stroke="#4B8F00" stroke-width="0.6001" stroke-miterlimit="10" d="M65.084,102.777
		c-1.735,0.249-2.933,1.825-2.672,3.502c0.253,1.684,1.877,2.851,3.609,2.601c1.741-0.251,2.942-1.83,2.68-3.51
		C68.447,103.688,66.824,102.526,65.084,102.777L65.084,102.777z M65.788,107.354c-0.866,0.121-1.676-0.459-1.805-1.302
		c-0.132-0.836,0.469-1.624,1.337-1.749c0.869-0.129,1.678,0.456,1.806,1.294C67.255,106.439,66.663,107.223,65.788,107.354
		L65.788,107.354z"/>
	<path fill="#4B8F00" stroke="#4B8F00" stroke-width="0.6001" stroke-miterlimit="10" d="M56.774,69.679l3.146-0.455
		c0.442-0.062,0.736-0.452,0.672-0.875c-0.064-0.42-0.471-0.711-0.905-0.648l-3.148,0.456c-0.436,0.062-0.732,0.456-0.669,0.875
		C55.936,69.454,56.335,69.742,56.774,69.679L56.774,69.679z"/>
	<path fill="#4B8F00" stroke="#4B8F00" stroke-width="0.6001" stroke-miterlimit="10" d="M62.282,68.886l0.789-0.115
		c0.434-0.062,0.733-0.455,0.667-0.876c-0.062-0.419-0.472-0.713-0.902-0.647l-0.786,0.11c-0.433,0.064-0.736,0.457-0.671,0.877
		C61.443,68.659,61.846,68.947,62.282,68.886L62.282,68.886z"/>
	<path fill="#4B8F00" stroke="#4B8F00" stroke-width="0.6001" stroke-miterlimit="10" d="M80.816,65.87
		c-0.352-0.254-0.853-0.182-1.117,0.163c-0.262,0.345-0.185,0.821,0.167,1.075c3.38,2.424,4.092,7.058,1.592,10.337
		c-0.26,0.34-0.19,0.82,0.166,1.075c0.178,0.125,0.392,0.172,0.591,0.142c0.203-0.03,0.393-0.128,0.522-0.305
		C85.764,74.409,84.902,68.802,80.816,65.87L80.816,65.87z"/>
	<path fill="#4B8F00" stroke="#4B8F00" stroke-width="0.6001" stroke-miterlimit="10" d="M77.767,68.085
		c-0.353-0.252-0.85-0.182-1.113,0.161c-0.261,0.343-0.184,0.822,0.165,1.077c1.123,0.802,1.847,1.983,2.055,3.322
		c0.21,1.335-0.139,2.67-0.964,3.753c-0.265,0.341-0.188,0.825,0.166,1.079c0.181,0.126,0.394,0.17,0.59,0.142
		c0.202-0.026,0.398-0.134,0.524-0.304c1.081-1.414,1.524-3.154,1.257-4.896C80.179,70.673,79.229,69.129,77.767,68.085
		L77.767,68.085z"/>
	<path fill="#4B8F00" stroke="#4B8F00" stroke-width="0.6001" stroke-miterlimit="10" d="M40.203,72.839
		c0.263-0.342,0.189-0.819-0.167-1.076c-0.352-0.253-0.848-0.184-1.106,0.163c-3.023,3.956-2.164,9.557,1.922,12.486
		c0.178,0.127,0.391,0.169,0.584,0.142c0.207-0.027,0.396-0.13,0.524-0.302c0.261-0.343,0.189-0.824-0.161-1.079
		C38.42,80.752,37.704,76.116,40.203,72.839L40.203,72.839z"/>
	<path fill="#4B8F00" stroke="#4B8F00" stroke-width="0.6001" stroke-miterlimit="10" d="M43.59,72.809
		c-0.354-0.257-0.853-0.183-1.117,0.161c-1.084,1.416-1.528,3.156-1.258,4.901c0.268,1.743,1.22,3.283,2.681,4.329
		c0.178,0.125,0.388,0.172,0.588,0.144c0.202-0.03,0.396-0.132,0.528-0.307c0.259-0.343,0.185-0.818-0.166-1.075
		c-1.124-0.803-1.855-1.979-2.06-3.318c-0.204-1.336,0.137-2.674,0.973-3.756C44.017,73.543,43.944,73.06,43.59,72.809L43.59,72.809
		z"/>
</g>
<path fill="none" stroke="#4B8F00" stroke-width="2.1718" stroke-miterlimit="10" d="M80.45,114.394c0,0,6.794-5.571,5.749-11.648
	c-1.043-6.079-6.276-12.157-6.276-12.157s-6.269-6.076-5.224-2.024c1.049,4.051,3.139,9.115,3.139,9.115l-2.536,2.627"/>
<path fill="#FFFFFF" stroke="#4B8F00" stroke-width="2.1718" stroke-miterlimit="10" d="M45.002,93.63c0,0,3.135-6.078,5.755-6.078
	c2.606,0,3.654-0.004,2.086,4.049c0,0,4.706,2.025,1.567,6.584c-3.135,4.559,4.182,1.015-3.135,4.559c-7.32,3.547,0,0,0,0
	l0.267,7.47C51.543,110.216,42.388,110.343,45.002,93.63z"/>
<line fill="none" stroke="#4B8F00" stroke-width="1.6578" stroke-miterlimit="10" x1="58.066" y1="111.862" x2="65.913" y2="115.408"/>
<g>
	<path fill="#4B8F00" d="M272,343.438c0,4.177-3.387,7.562-7.564,7.562H79.564c-4.177,0-7.564-3.387-7.564-7.562v-39.873
		c0-4.178,3.387-7.563,7.564-7.563h184.872c4.177,0,7.564,3.388,7.564,7.563V343.438z"/>
	<path fill="none" stroke="#FFFFFF" stroke-width="3" stroke-miterlimit="10" d="M271.5,343.938c0,4.177-3.387,7.562-7.564,7.562
		H79.064c-4.177,0-7.564-3.387-7.564-7.562v-39.873c0-4.178,3.387-7.563,7.564-7.563h184.872c4.177,0,7.564,3.388,7.564,7.563
		V343.938z"/>
</g>
<g>
	<path fill="#4B8F00" d="M487,343.438c0,4.177-3.387,7.562-7.562,7.562H294.562c-4.177,0-7.562-3.387-7.562-7.562v-39.873
		c0-4.178,3.387-7.563,7.562-7.563h184.873c4.178,0,7.563,3.388,7.563,7.563L487,343.438L487,343.438z"/>
	<path fill="none" stroke="#FFFFFF" stroke-width="3" stroke-miterlimit="10" d="M486.5,343.938c0,4.177-3.387,7.562-7.562,7.562
		H294.062c-4.177,0-7.562-3.387-7.562-7.562v-39.873c0-4.178,3.387-7.563,7.562-7.563h184.873c4.178,0,7.563,3.388,7.563,7.563
		L486.5,343.938L486.5,343.938z"/>
</g>
<g>
	<path fill="#FFFFFF" d="M138.341,325.993l-1.676,2.296c-0.612-0.795-1.308-1.621-2.088-2.479v8.86H131.8v-8.104
		c-0.934,0.873-1.905,1.623-2.915,2.25c-0.107-0.368-0.302-0.834-0.583-1.4c-0.282-0.565-0.533-0.986-0.748-1.262
		c1.285-0.688,2.509-1.614,3.672-2.777c1.163-1.163,2.134-2.425,2.915-3.786h-5.692v-2.525h3.352v-4.314h2.777v4.314h1.056
		l0.483-0.113l1.584,1.008c-0.69,1.745-1.616,3.421-2.779,5.026C135.658,323.584,136.795,324.586,138.341,325.993z M145.111,331.273
		h5.004v2.707h-13.289v-2.707h5.417v-8.606h-4.453v-2.709h4.453v-7.022h2.869v7.022h4.453v2.709h-4.453L145.111,331.273
		L145.111,331.273z"/>
	<path fill="#FFFFFF" d="M172.127,316.63v14.849c0,0.781-0.093,1.378-0.277,1.791c-0.182,0.413-0.521,0.726-1.01,0.939
		c-0.705,0.322-2.227,0.482-4.567,0.482c-0.108-0.888-0.412-1.812-0.918-2.776c0.612,0.03,1.744,0.046,3.397,0.046
		c0.229-0.016,0.386-0.062,0.47-0.139c0.085-0.075,0.126-0.213,0.126-0.412v-12.072h-5.484c-0.044,0.948-0.154,1.837-0.322,2.662
		c2.861,2.601,4.797,4.554,5.807,5.854l-2.294,1.812c-0.872-1.193-2.349-2.829-4.43-4.911c-1.041,2.22-2.725,4.017-5.049,5.395
		c-0.537-0.795-1.184-1.484-1.952-2.065v6.632h-2.8v-18.084h8.193v-3.902h2.871v3.902h8.24V316.63z M155.623,319.338v8.676
		c1.056-0.551,1.952-1.177,2.686-1.882c0.734-0.703,1.282-1.458,1.641-2.262c0.359-0.802,0.616-1.553,0.77-2.249
		c0.152-0.695,0.244-1.457,0.275-2.283H155.623L155.623,319.338z"/>
	<path fill="#FFFFFF" d="M182.454,322.229v1.285c0.443,0.337,1.218,0.961,2.317,1.87c1.103,0.911,1.707,1.404,1.813,1.48l-1.63,2.41
		c-0.506-0.642-1.339-1.56-2.502-2.754v8.103h-2.686V326.2c-1.194,2.417-2.396,4.262-3.604,5.531
		c-0.214-0.657-0.68-1.568-1.397-2.73c0.825-0.811,1.636-1.828,2.431-3.052c0.795-1.225,1.469-2.464,2.02-3.719h-3.924v-2.548h4.475
		v-2.915c-1.255,0.245-2.571,0.452-3.945,0.619c-0.125-0.703-0.393-1.43-0.806-2.18c4.101-0.612,7.246-1.415,9.433-2.41l1.997,2.158
		c-1.117,0.428-2.448,0.834-3.994,1.215v3.512h4.062v2.548H182.454L182.454,322.229z M190.326,315.574v13.128h-2.708v-13.128
		H190.326z M193.149,313.164h2.777v18.11c0,0.825-0.095,1.452-0.285,1.882c-0.193,0.428-0.526,0.749-1.001,0.964
		c-0.794,0.382-2.356,0.558-4.682,0.528c-0.138-0.933-0.459-1.897-0.964-2.893c1.025,0.047,2.204,0.068,3.535,0.068
		c0.414-0.015,0.62-0.206,0.62-0.573L193.149,313.164L193.149,313.164z"/>
	<path fill="#FFFFFF" d="M218.832,314.288v17.077c0,0.766-0.096,1.351-0.288,1.756c-0.192,0.405-0.523,0.707-0.999,0.906
		c-0.766,0.367-2.263,0.536-4.498,0.505c-0.092-0.704-0.391-1.599-0.896-2.686c0.581,0.031,1.674,0.047,3.282,0.047
		c0.413,0,0.619-0.186,0.619-0.551v-3.535h-4.958v6.565h-2.823v-6.565h-4.797c-0.489,3.045-1.477,5.371-2.96,6.977
		c-0.229-0.274-0.579-0.607-1.044-0.998c-0.468-0.39-0.854-0.662-1.159-0.814c0.613-0.673,1.113-1.434,1.503-2.284
		c0.39-0.849,0.669-1.763,0.838-2.743c0.167-0.979,0.279-1.847,0.333-2.604c0.054-0.756,0.081-1.641,0.081-2.65v-8.401H218.832z
		 M203.776,325.168h4.498v-2.892h-4.43v0.435C203.844,323.478,203.822,324.296,203.776,325.168z M208.274,316.952h-4.43v2.729h4.43
		V316.952z M216.055,319.683v-2.73h-4.958v2.73H216.055z M211.097,325.168h4.958v-2.892h-4.958V325.168z"/>
</g>
<g>
	<path fill="#FFFFFF" d="M374.839,330.26h9.204v2.8h-21.369v-2.8h8.951v-12.164h-7.688v-2.915h18.798v2.915h-7.896V330.26z"/>
	<path fill="#FFFFFF" d="M407.772,324.522h-9.341c-0.107,0.197-0.329,0.573-0.665,1.123h9.548c-0.016,0.43-0.03,0.751-0.046,0.966
		c-0.153,2.249-0.336,3.913-0.55,4.991c-0.216,1.079-0.482,1.793-0.804,2.146c-0.368,0.459-0.881,0.726-1.537,0.803
		c-0.628,0.077-1.425,0.091-2.388,0.047c-0.061-0.843-0.268-1.569-0.619-2.181c0.507,0.045,1.056,0.067,1.652,0.067
		c0.321,0,0.559-0.083,0.712-0.252c0.352-0.382,0.643-1.851,0.871-4.407h-0.917c-0.49,1.348-1.164,2.659-2.021,3.937
		s-1.752,2.284-2.686,3.018c-0.505-0.612-1.163-1.124-1.975-1.537c0.873-0.55,1.69-1.309,2.456-2.271
		c0.765-0.965,1.408-2.012,1.928-3.146h-1.399c-0.628,1.134-1.446,2.237-2.456,3.317c-1.009,1.078-2.021,1.939-3.029,2.582
		c-0.566-0.719-1.18-1.27-1.837-1.652c0.857-0.428,1.714-1.021,2.571-1.777c0.856-0.758,1.601-1.581,2.227-2.469h-1.424
		c-0.871,0.919-1.782,1.683-2.73,2.296c-0.185-0.229-0.463-0.517-0.836-0.861c-0.377-0.344-0.702-0.601-0.977-0.769
		c-0.596,0.291-1.438,0.704-2.525,1.239c-1.086,0.536-1.85,0.919-2.296,1.146l-1.032-2.822c0.229-0.091,0.497-0.198,0.804-0.321
		c0.306-0.122,0.665-0.264,1.077-0.425c0.414-0.161,0.751-0.294,1.01-0.401v-6.634h-2.361v-2.617h2.361v-4.636h2.571v4.636h2.203
		v2.617h-2.203v5.555l1.883-0.828L393.5,327c0.824-0.721,1.543-1.546,2.155-2.479h-2.662v-2.364h14.781v2.366H407.772z
		 M406.19,313.322v7.94h-11.133v-7.94H406.19z M403.597,316.374v-1.124h-6.06v1.124H403.597z M403.597,319.335v-1.124h-6.06v1.124
		H403.597z"/>
</g>
<g>
	<path fill="#4B8F00" d="M272,411.438c0,4.177-3.387,7.562-7.564,7.562H79.564c-4.177,0-7.564-3.387-7.564-7.562v-39.873
		c0-4.178,3.387-7.563,7.564-7.563h184.872c4.177,0,7.564,3.387,7.564,7.563V411.438z"/>
	<path fill="none" stroke="#FFFFFF" stroke-width="3" stroke-miterlimit="10" d="M271.5,410.938c0,4.177-3.387,7.562-7.564,7.562
		H79.064c-4.177,0-7.564-3.387-7.564-7.562v-39.873c0-4.178,3.387-7.563,7.564-7.563h184.872c4.177,0,7.564,3.387,7.564,7.563
		V410.938z"/>
</g>
<g>
	<path fill="#4B8F00" d="M486,411.438c0,4.177-3.387,7.562-7.562,7.562H293.562c-4.177,0-7.562-3.387-7.562-7.562v-39.873
		c0-4.178,3.387-7.563,7.562-7.563h184.873c4.178,0,7.563,3.387,7.563,7.563L486,411.438L486,411.438z"/>
	<path fill="none" stroke="#FFFFFF" stroke-width="3" stroke-miterlimit="10" d="M486.5,410.938c0,4.177-3.387,7.562-7.562,7.562
		H294.062c-4.177,0-7.562-3.387-7.562-7.562v-39.873c0-4.178,3.387-7.563,7.562-7.563h184.873c4.178,0,7.563,3.387,7.563,7.563
		L486.5,410.938L486.5,410.938z"/>
</g>
<g>
	<path fill="#FFFFFF" d="M156.54,379.752V390.7c1.545,1.331,3.182,2.379,4.911,3.146c-0.734,0.642-1.415,1.461-2.043,2.456
		c-1.007-0.537-1.965-1.156-2.869-1.86v7.161h-2.914v-9.892c-0.979-1.07-1.936-2.333-2.869-3.787
		c-1.729,6.503-4.806,11.009-9.227,13.52c-0.229-0.321-0.574-0.696-1.033-1.125c-0.459-0.429-0.857-0.75-1.194-0.965
		c2.618-1.347,4.743-3.372,6.381-6.081c-0.842-0.781-2.02-1.676-3.535-2.687c-0.276,0.399-0.674,0.858-1.194,1.377
		c-0.902-0.825-1.683-1.422-2.339-1.789c1.251-1.133,2.354-2.617,3.303-4.454c0.948-1.836,1.69-3.84,2.226-6.013l2.779,0.528
		c-0.216,0.841-0.507,1.799-0.874,2.869h3.259l0.505-0.092l1.837,0.643c-0.045,0.262-0.112,0.624-0.195,1.091
		c-0.085,0.467-0.142,0.784-0.172,0.953l0.872-0.344c0.401,0.764,0.888,1.522,1.469,2.271v-7.871h2.916V379.752z M148.438,385.765
		h-3.444c-0.367,0.873-0.841,1.783-1.422,2.732c1.361,0.795,2.485,1.553,3.374,2.271
		C147.558,389.315,148.055,387.647,148.438,385.765z"/>
	<path fill="#FFFFFF" d="M179.995,391.688h2.915v9.938h-2.915v-1.331h-13.037v1.355h-2.845v-9.961h2.845v5.852h4.912v-7.093h-6.816
		v-8.537h2.779v5.807h4.037v-7.78h2.869v7.78h4.292v-5.807h2.938v8.537h-7.23v7.093h5.256V391.688L179.995,391.688z"/>
	<path fill="#FFFFFF" d="M194.088,381.129v15.975h-4.773v2.089h-2.572v-18.063H194.088L194.088,381.129z M191.471,383.631h-2.157
		v4.132h2.157V383.631z M189.315,394.625h2.157v-4.431h-2.157V394.625z M207.906,389.116h-2.41v2.021h2.249v2.433h-2.249v5.118
		c0,0.688-0.085,1.224-0.253,1.606c-0.169,0.383-0.475,0.673-0.918,0.873c-0.72,0.304-2.027,0.458-3.925,0.458
		c-0.076-0.704-0.375-1.583-0.896-2.639c0.751,0.029,1.676,0.046,2.777,0.046c0.336,0,0.508-0.139,0.508-0.414v-5.049h-8.243v-2.433
		h8.243v-2.021h-8.311v-2.434h5.325v-2.064h-4.522v-2.456h4.522v-2.456h2.754v2.456h4.705v2.456h-4.705v2.064h5.348L207.906,389.116
		L207.906,389.116z M195.466,395.13l2.249-1.285c1.438,1.529,2.386,2.815,2.846,3.855l-2.411,1.377
		C197.737,398.006,196.842,396.69,195.466,395.13z"/>
</g>
<g>
	<path fill="#FFFFFF" d="M374.46,383.154l1.838,0.437c-0.508,5.081-1.638,9.188-3.398,12.325c1.194,1.652,2.618,2.923,4.27,3.811
		c-0.321,0.261-0.674,0.615-1.055,1.068c-0.384,0.45-0.674,0.859-0.872,1.228c-1.547-0.919-2.9-2.119-4.063-3.604
		c-1.193,1.453-2.587,2.653-4.175,3.604c-0.415-0.766-0.928-1.446-1.54-2.044v2.203h-2.708v-3.763
		c-2.647,0.443-5.186,0.849-7.62,1.215l-0.527-2.776c0.243-0.031,0.612-0.073,1.102-0.125c0.489-0.055,0.841-0.097,1.056-0.127
		v-12.464h-1.606v-2.593h11.796v1.677h7.024L374.46,383.154z M362.755,384.141h-3.352v2.228h3.352V384.141z M359.403,388.893v2.341
		h3.352v-2.341H359.403z M359.403,393.713v2.57c0.261-0.03,0.777-0.1,1.55-0.207c0.773-0.105,1.373-0.183,1.802-0.229v-2.133
		L359.403,393.713L359.403,393.713z M365.464,384.141v15.447c1.561-0.872,2.914-2.111,4.062-3.718
		c-1.331-2.463-2.387-5.57-3.168-9.319l2.663-0.527c0.475,2.633,1.192,4.95,2.157,6.955c0.994-2.188,1.676-4.522,2.043-7h-6.954
		v-1.838H365.464L365.464,384.141z"/>
	<path fill="#FFFFFF" d="M382.425,391.485h7.413c-0.031,0.521-0.068,0.903-0.116,1.147c-0.184,2.617-0.394,4.557-0.63,5.818
		c-0.237,1.263-0.563,2.124-0.976,2.583c-0.551,0.581-1.328,0.918-2.341,1.01c-0.764,0.091-1.989,0.106-3.672,0.046
		c-0.077-1.04-0.42-2.02-1.034-2.938c1.087,0.107,2.268,0.161,3.535,0.161c0.459,0,0.811-0.093,1.056-0.275
		c0.46-0.353,0.812-2.006,1.057-4.958h-4.773c-0.092,0.49-0.161,0.842-0.208,1.056l-2.822-0.459c0.643-2.555,1.124-5.31,1.446-8.263
		h6.497v-2.684h-7.071v-2.594h9.846v7.896h-6.816C382.723,389.658,382.593,390.476,382.425,391.485z M394.934,380.584h2.8v21.597
		h-2.8V380.584z"/>
	<path fill="#FFFFFF" d="M417.999,399.197h2.02c0.353,0,0.586-0.191,0.703-0.574c0.112-0.381,0.192-1.262,0.238-2.639
		c0.611,0.49,1.46,0.864,2.548,1.125c-0.138,1.835-0.433,3.082-0.884,3.741c-0.452,0.657-1.229,0.987-2.329,0.987h-2.707
		c-1.287,0-2.146-0.249-2.584-0.747c-0.438-0.497-0.653-1.426-0.653-2.789v-5.715h-3.444c-0.121,0.918-0.263,1.73-0.424,2.433
		c-0.159,0.704-0.408,1.438-0.744,2.203c-0.339,0.766-0.756,1.435-1.253,2.009s-1.14,1.132-1.926,1.675
		c-0.79,0.544-1.712,1.013-2.767,1.412c-0.398-0.919-0.979-1.736-1.743-2.455c1.132-0.368,2.08-0.808,2.845-1.32
		c0.765-0.514,1.351-1.103,1.756-1.768c0.405-0.666,0.704-1.312,0.896-1.939c0.191-0.627,0.332-1.378,0.425-2.25h-5.553V389.9h9.018
		v-3.811h-4.062c-0.658,1.425-1.256,2.487-1.79,3.191c-0.812-0.49-1.638-0.896-2.479-1.218c0.721-0.887,1.346-2.022,1.883-3.407
		c0.534-1.386,0.949-2.751,1.237-4.097l2.869,0.572c-0.016,0.048-0.252,0.804-0.712,2.272h3.052v-3.167h2.823v3.167h7.207v2.686
		h-7.207v3.811h9.043v2.686h-6.15v5.716c0,0.382,0.053,0.627,0.149,0.734C417.398,399.146,417.632,399.197,417.999,399.197z"/>
</g>
<polyline fill="none" stroke="#4B8F00" stroke-width="2.1718" stroke-linecap="round" stroke-linejoin="round" stroke-miterlimit="10" points="
	151.083,141.478 151.338,146.874 136.685,181.836 146.458,192.891 156.225,184.665 157.51,148.673 162.397,146.104 "/>
</svg>
