<?xml version="1.0" encoding="utf-8"?>
<!-- Generator: Adobe Illustrator 16.0.0, SVG Export Plug-In . SVG Version: 6.00 Build 0)  -->
<!DOCTYPE svg PUBLIC "-//W3C//DTD SVG 1.1//EN" "http://www.w3.org/Graphics/SVG/1.1/DTD/svg11.dtd">
<svg version="1.1" id="レイヤー_1" xmlns="http://www.w3.org/2000/svg" xmlns:xlink="http://www.w3.org/1999/xlink" x="0px"
	 y="0px" width="370px" height="85px" viewBox="0 0 370 85" enable-background="new 0 0 370 85" xml:space="preserve">
<g>
	<path d="M107.986,30.894v8.056c0,1.412,0.217,2.323,0.639,2.714c0.44,0.383,1.434,0.588,3.001,0.588h0.276v1.057h-10.77v-1.057
		h0.313c1.224,0,2.025-0.218,2.405-0.635c0.38-0.425,0.561-1.306,0.561-2.667V22.062c0-1.377-0.181-2.27-0.555-2.682
		c-0.373-0.414-1.175-0.615-2.411-0.615h-0.313V17.71h17.905l0.561,4.755h-1.332l-0.047-0.352c-0.211-1.459-0.657-2.348-1.326-2.668
		c-0.645-0.322-2.369-0.481-5.147-0.481h-3.761v10.885h3.99c1.875,0,3.08-0.158,3.61-0.456c0.53-0.31,0.795-1.006,0.795-2.097
		v-0.289h1.332v6.737h-1.332v-0.252c0-0.985-0.222-1.682-0.668-2.104c-0.337-0.319-1.579-0.494-3.737-0.494H107.986z"/>
	<path d="M137.867,40.181c-1.175,1.223-2.375,2.132-3.61,2.742c-1.223,0.606-2.477,0.908-3.766,0.908
		c-1.941,0-3.375-0.592-4.273-1.77c-0.916-1.172-1.368-3.013-1.368-5.53v-4.857c0-1.666-0.109-2.72-0.332-3.171
		c-0.224-0.437-0.862-0.873-1.923-1.294l-0.994-0.435v-0.258l6.539-2.2v11.113c0,2.402,0.265,3.993,0.802,4.782
		c0.536,0.784,1.458,1.187,2.784,1.187c1.066,0,2.013-0.168,2.845-0.505c0.825-0.328,1.922-0.979,3.296-1.95v-7.32
		c0-1.63-0.115-2.668-0.337-3.119c-0.235-0.437-0.868-0.873-1.922-1.294l-0.994-0.435v-0.258l6.532-2.2v14.698
		c0,0.872,0.235,1.468,0.699,1.775c0.458,0.319,1.326,0.471,2.604,0.471h0.132v1.052l-6.714,1.518V40.181L137.867,40.181z"/>
	<path d="M159.449,41.061v1.522c-1.446,0.832-2.965,1.248-4.567,1.248c-2.001,0-3.436-0.562-4.286-1.688
		c-0.862-1.13-1.284-3.031-1.284-5.683V26.055h-3.225l6.509-5.906v4.688h6.226v1.253h-6.226v9.854c0,2.186,0.307,3.765,0.922,4.75
		c0.621,0.986,1.604,1.489,2.959,1.489C157.195,42.183,158.195,41.814,159.449,41.061"/>
	<path d="M177.228,40.181c-1.169,1.223-2.375,2.132-3.604,2.742c-1.235,0.606-2.489,0.908-3.767,0.908
		c-1.94,0-3.375-0.592-4.279-1.77c-0.91-1.172-1.356-3.013-1.356-5.53v-4.857c0-1.666-0.121-2.72-0.337-3.171
		c-0.224-0.437-0.869-0.873-1.929-1.294l-0.994-0.435v-0.258l6.539-2.2v11.113c0,2.402,0.271,3.993,0.807,4.782
		c0.53,0.784,1.453,1.187,2.778,1.187c1.067,0,2.019-0.168,2.845-0.505c0.838-0.328,1.928-0.979,3.296-1.95v-7.32
		c0-1.63-0.115-2.668-0.337-3.119c-0.235-0.437-0.868-0.873-1.923-1.294l-0.994-0.435v-0.258l6.545-2.2v14.698
		c0,0.872,0.229,1.468,0.693,1.775c0.458,0.319,1.326,0.471,2.597,0.471h0.139v1.052l-6.72,1.518L177.228,40.181L177.228,40.181z"/>
	<path d="M192.94,29.473v9.477c0,1.371,0.229,2.266,0.687,2.681c0.452,0.416,1.422,0.622,2.897,0.622h0.266v1.058h-10.571v-1.058
		h0.32c1.29,0,2.127-0.208,2.525-0.634c0.392-0.418,0.59-1.305,0.59-2.668v-7.275c0-1.619-0.12-2.646-0.355-3.077
		c-0.229-0.428-0.897-0.862-1.994-1.274l-1.049-0.411V26.65l6.685-2.21v3.599c1.217-1.253,2.332-2.185,3.344-2.803
		c1.025-0.619,1.935-0.918,2.755-0.918c1.458,0,2.67,0.708,3.634,2.109l-2.591,2.729c-0.881-1.429-1.839-2.148-2.869-2.148
		c-0.929,0-2.224,0.729-3.904,2.171C193.259,29.204,193.132,29.315,192.94,29.473"/>
	<path d="M209.634,27.272c1.03-1.271,2.278-1.902,3.768-1.902c1.205,0,2.192,0.444,2.959,1.365c0.76,0.917,1.14,2.097,1.14,3.538
		c0,0.938-0.351,1.521-1.049,1.775c-0.705,0.247-2.375,0.373-5.015,0.373h-3.658C208.007,30.258,208.621,28.553,209.634,27.272
		 M215.202,41.793c-2.133,0-3.917-0.72-5.352-2.167c-1.439-1.44-2.164-3.236-2.164-5.371c0-0.146,0-0.4,0.023-0.792h13.428V32.94
		c0-2.718-0.669-4.827-2.023-6.354c-1.356-1.522-3.236-2.269-5.672-2.269c-2.707,0-4.955,0.92-6.75,2.772
		c-1.803,1.862-2.693,4.186-2.693,6.999c0,2.825,0.936,5.166,2.814,6.998c1.861,1.833,4.248,2.746,7.146,2.746
		c2.411,0,4.898-0.675,7.468-2.038v-1.587C219.308,41.261,217.228,41.793,215.202,41.793"/>
	<path d="M236.856,43.047l-0.422-5.61h1.361l0.055,0.268c0.35,1.703,1.072,3.022,2.188,3.951c1.103,0.928,2.507,1.392,4.213,1.392
		c1.536,0,2.862-0.495,3.965-1.474c1.091-0.986,1.651-2.166,1.651-3.552c0-1.739-1.416-3.52-4.249-5.337l-2.693-1.754
		c-2.622-1.685-4.333-3.008-5.135-3.951c-0.813-0.934-1.224-2.069-1.224-3.398c0-1.983,0.854-3.577,2.566-4.78
		c1.713-1.208,3.979-1.811,6.768-1.811c2.201,0,4.426,0.368,6.703,1.114l0.481,4.82h-1.362l-0.09-0.264
		c-0.935-3.082-3.08-4.625-6.431-4.625c-1.501,0-2.742,0.429-3.726,1.266c-0.988,0.847-1.481,1.917-1.481,3.213
		c0,1.636,1.217,3.235,3.634,4.809l3.895,2.491c2.416,1.573,4.02,2.823,4.777,3.755c0.754,0.922,1.135,2.08,1.135,3.48
		c0,2.149-0.875,3.857-2.617,5.135c-1.746,1.28-4.084,1.911-7.025,1.911C241.347,44.096,239.032,43.743,236.856,43.047"/>
	<path d="M265.743,27.541c0.916-0.352,1.809-0.533,2.662-0.533c1.894,0,3.438,0.719,4.636,2.153c1.2,1.435,1.796,3.298,1.796,5.584
		c0,2.305-0.596,4.188-1.777,5.677c-1.188,1.478-2.699,2.228-4.525,2.228c-0.994,0-2.001-0.245-3.025-0.73
		c-1.029-0.482-1.886-1.121-2.566-1.92V29.155C263.899,28.438,264.833,27.902,265.743,27.541 M265.255,43.662
		c0.771,0.111,1.531,0.169,2.278,0.169c3.218,0,5.846-0.961,7.853-2.872c2.008-1.911,3.014-4.406,3.014-7.48
		c0-2.657-0.754-4.854-2.283-6.58c-1.514-1.723-3.454-2.582-5.805-2.582c-1.15,0-2.345,0.277-3.58,0.848
		c-1.224,0.577-2.482,1.444-3.791,2.59v-3.438l-6.551,2.2v0.258l1.049,0.435c1.013,0.385,1.627,0.812,1.856,1.286
		c0.233,0.46,0.354,1.486,0.354,3.062v14.586c0,1.353-0.198,2.242-0.608,2.66c-0.397,0.426-1.229,0.635-2.524,0.635h-0.156v1.054
		h9.859v-1.054h-0.224c-1.254,0-2.073-0.209-2.478-0.635c-0.386-0.418-0.578-1.309-0.578-2.66v-3
		C263.718,43.367,264.489,43.546,265.255,43.662"/>
	<path d="M288.065,24.439V38.95c0,1.361,0.182,2.242,0.572,2.667c0.387,0.417,1.193,0.635,2.424,0.635h0.276v1.057h-9.864v-1.057
		h0.366c1.199,0,1.978-0.208,2.362-0.634c0.374-0.418,0.566-1.305,0.566-2.668v-7.247c0-1.662-0.108-2.683-0.303-3.067
		c-0.203-0.378-0.886-0.819-2.037-1.31l-0.916-0.413v-0.264L288.065,24.439z M285.892,22.062c-0.664,0-1.207-0.209-1.646-0.624
		c-0.446-0.417-0.663-0.921-0.663-1.546c0-0.609,0.217-1.121,0.663-1.543c0.439-0.425,0.982-0.639,1.646-0.639
		c0.649,0,1.192,0.214,1.645,0.639c0.439,0.422,0.656,0.934,0.656,1.543c0,0.625-0.217,1.129-0.656,1.546
		C287.084,21.854,286.541,22.062,285.892,22.062"/>
	<path d="M300.409,29.473v9.477c0,1.371,0.229,2.266,0.681,2.681c0.452,0.416,1.423,0.622,2.905,0.622h0.266v1.058h-10.564v-1.058
		h0.312c1.29,0,2.121-0.208,2.52-0.634c0.397-0.418,0.597-1.305,0.597-2.668v-7.275c0-1.619-0.12-2.646-0.354-3.077
		c-0.229-0.428-0.893-0.862-1.996-1.274l-1.041-0.411V26.65l6.678-2.21v3.599c1.217-1.253,2.339-2.185,3.351-2.803
		c1.019-0.619,1.935-0.918,2.736-0.918c1.465,0,2.676,0.708,3.646,2.109l-2.592,2.729c-0.874-1.429-1.832-2.148-2.867-2.148
		c-0.924,0-2.23,0.729-3.906,2.171C300.733,29.204,300.606,29.315,300.409,29.473"/>
	<path d="M317.903,24.439V38.95c0,1.361,0.193,2.242,0.586,2.667c0.386,0.417,1.188,0.635,2.429,0.635h0.283v1.057h-9.871v-1.057
		h0.349c1.206,0,2.002-0.208,2.377-0.634c0.372-0.418,0.564-1.305,0.564-2.668v-7.247c0-1.662-0.108-2.683-0.307-3.067
		c-0.201-0.378-0.888-0.819-2.045-1.31l-0.91-0.413v-0.264L317.903,24.439z M315.735,22.062c-0.657,0-1.193-0.209-1.646-0.624
		c-0.439-0.417-0.663-0.921-0.663-1.546c0-0.609,0.224-1.121,0.663-1.543c0.452-0.425,0.988-0.639,1.646-0.639
		c0.645,0,1.199,0.214,1.639,0.639c0.445,0.422,0.669,0.934,0.669,1.543c0,0.625-0.224,1.129-0.669,1.546
		C316.935,21.854,316.38,22.062,315.735,22.062"/>
	<path d="M336.136,41.061v1.522c-1.451,0.832-2.982,1.248-4.574,1.248c-2,0-3.43-0.562-4.285-1.688
		c-0.867-1.13-1.289-3.031-1.289-5.683V26.055h-3.219l6.51-5.906v4.688h6.227v1.253h-6.227v9.854c0,2.186,0.308,3.765,0.922,4.75
		c0.613,0.986,1.609,1.489,2.947,1.489C333.876,42.183,334.87,41.814,336.136,41.061"/>
	<path d="M339.181,42.583l-0.424-4.751h1.398l0.062,0.328c0.494,3.079,2.134,4.616,4.925,4.616c1.198,0,2.241-0.355,3.104-1.057
		c0.855-0.714,1.283-1.571,1.283-2.559c0-0.612-0.211-1.164-0.657-1.624c-0.445-0.468-1.519-1.137-3.212-2.011l-1.664-0.858
		c-3.17-1.632-4.749-3.474-4.749-5.493c0-1.495,0.585-2.688,1.741-3.556c1.17-0.871,2.755-1.301,4.744-1.301
		c1.682,0,3.537,0.34,5.551,1.054v3.819h-1.398l-0.055-0.31c-0.084-0.531-0.198-0.977-0.331-1.36
		c-0.146-0.376-0.337-0.712-0.597-0.998c-0.271-0.292-0.64-0.551-1.115-0.795c-0.482-0.247-1.188-0.356-2.121-0.356
		c-0.971,0-1.778,0.263-2.398,0.792c-0.627,0.531-0.935,1.217-0.935,2.055c0,1.218,1.224,2.475,3.694,3.761l1.838,0.961
		c1.803,0.941,3.043,1.805,3.73,2.601c0.682,0.802,1.014,1.791,1.014,2.95c0,1.608-0.683,2.907-2.057,3.875
		c-1.355,0.976-3.164,1.465-5.4,1.465C342.79,43.831,340.802,43.415,339.181,42.583"/>
</g>
<text transform="matrix(1 0 0 1 100.5947 70.6553)" fill="#333333" font-family="'GenShinGothic-Heavy'" font-size="13">フルサポートレンタルサーバー </text>
<rect x="287.001" y="57" fill="#72B12D" width="67" height="19"/>
<text transform="matrix(1 0 0 1 290.001 71)" fill="#FFFFFF" font-family="'GenShinGothic-Heavy'" font-size="12">マレーシア</text>
<g>
	<path fill="#72B12D" d="M103.099,5.14C50.768,6.443,14.437,21.522,10.883,31.573c-2.231,6.303,1.292,11.8,10.473,15.416
		c-0.041-0.276-0.077-0.55-0.089-0.813C19.642,20.374,103.099,5.14,103.099,5.14"/>
	<g>
		<g>
			<g>
				<defs>
					<path id="SVGID_1_" d="M44.539,53.595c0,5.979,5.142,10.826,11.485,10.826c6.337,0,11.479-4.847,11.479-10.826
						c0-5.978-5.143-10.821-11.479-10.821C49.681,42.776,44.539,47.618,44.539,53.595"/>
				</defs>
				<clipPath id="SVGID_2_">
					<use xlink:href="#SVGID_1_"  overflow="visible"/>
				</clipPath>
				
					<radialGradient id="SVGID_3_" cx="-241.6509" cy="-168.7251" r="0.2608" gradientTransform="matrix(70.1901 0 0 66.1582 17021.6934 11208.6465)" gradientUnits="userSpaceOnUse">
					<stop  offset="0" style="stop-color:#FFFFFF"/>
					<stop  offset="1" style="stop-color:#0070B8"/>
				</radialGradient>
				<rect x="44.539" y="42.776" clip-path="url(#SVGID_2_)" fill="url(#SVGID_3_)" width="22.964" height="21.649"/>
			</g>
		</g>
		<path fill="#94C054" d="M49.354,51.435c-1.776-0.02-3.638-0.089-5.62-0.211c-9.449-0.596-16.917-2.082-22.377-4.235
			c1.44,9.299,17.481,23.981,35.797,25.037C49.56,64.485,48.984,55.97,49.354,51.435"/>
		<path fill="#C0D896" d="M78.477,44.621c-3.68,2.431-9.038,5.139-18.223,6.272c1.33,4.468,2.403,12.58-3.045,21.134
			c5.725,0.323,11.675-0.689,17.472-3.627C81.884,58.555,79.994,48.999,78.477,44.621"/>
	</g>
</g>
</svg>
